G04 Layer_Color=255*
%FSAX44Y44*%
%MOMM*%
G71*
G01*
G75*
%ADD13C,1.5000*%
%ADD14R,1.5000X1.5000*%
%ADD15C,1.4000*%
%ADD16O,2.7000X1.7000*%
%ADD17O,2.6000X1.6000*%
%ADD18O,2.4000X1.7000*%
%ADD19C,1.4224*%
%ADD20O,1.8000X3.2000*%
%ADD21O,1.8000X3.1999*%
D13*
X01329600Y01603400D02*
D03*
X01355000D02*
D03*
Y01628800D02*
D03*
X01329600D02*
D03*
Y01654200D02*
D03*
X01355000D02*
D03*
Y01679600D02*
D03*
X01329600D02*
D03*
Y01705000D02*
D03*
D14*
X01355000Y01705000D02*
D03*
D15*
X01332300Y01270000D02*
D03*
X01357700D02*
D03*
X01597300Y01340000D02*
D03*
X01622700D02*
D03*
X01522700Y01540000D02*
D03*
X01497300D02*
D03*
X01622700Y01740000D02*
D03*
X01597300D02*
D03*
X01360200Y01860000D02*
D03*
X01334800D02*
D03*
X01097700Y01740000D02*
D03*
X01072300D02*
D03*
X01172300Y01540000D02*
D03*
X01197700D02*
D03*
X01072300Y01340000D02*
D03*
X01097700D02*
D03*
D16*
X01070000Y01056200D02*
D03*
Y01206200D02*
D03*
X01256000Y01056200D02*
D03*
X01442000D02*
D03*
X01256000Y01206200D02*
D03*
X01628000Y01056200D02*
D03*
D17*
X01070000Y01139200D02*
D03*
Y01289200D02*
D03*
X01256000Y01139200D02*
D03*
X01442000D02*
D03*
X01256000Y01289200D02*
D03*
X01628000Y01139200D02*
D03*
D18*
X01070000Y01025200D02*
D03*
Y01175200D02*
D03*
X01256000Y01025200D02*
D03*
X01442000D02*
D03*
X01256000Y01175200D02*
D03*
X01628000Y01025200D02*
D03*
D19*
X01319999Y01320000D02*
D03*
X01345000D02*
D03*
X01370001D02*
D03*
X01509999Y01180000D02*
D03*
X01535000D02*
D03*
X01560001D02*
D03*
X01635001Y01387500D02*
D03*
X01610000D02*
D03*
X01584999D02*
D03*
X01535001Y01587500D02*
D03*
X01510000D02*
D03*
X01484999D02*
D03*
X01635001Y01787500D02*
D03*
X01610000D02*
D03*
X01584999D02*
D03*
X01372501Y01905000D02*
D03*
X01347500D02*
D03*
X01322499D02*
D03*
X01110001Y01787500D02*
D03*
X01085000D02*
D03*
X01059999D02*
D03*
X01159999Y01587500D02*
D03*
X01185000D02*
D03*
X01210001D02*
D03*
X01059999Y01387500D02*
D03*
X01085000D02*
D03*
X01110001D02*
D03*
D20*
X01296000Y01390000D02*
D03*
X01486000Y01250000D02*
D03*
X01561000Y01457500D02*
D03*
X01461000Y01657500D02*
D03*
X01561000Y01857500D02*
D03*
X01298500Y01975000D02*
D03*
X01036000Y01857500D02*
D03*
X01136000Y01657500D02*
D03*
X01036000Y01457500D02*
D03*
D21*
X01394000Y01390000D02*
D03*
X01584000Y01250000D02*
D03*
X01659000Y01457500D02*
D03*
X01559000Y01657500D02*
D03*
X01659000Y01857500D02*
D03*
X01396500Y01975000D02*
D03*
X01134000Y01857500D02*
D03*
X01234000Y01657500D02*
D03*
X01134000Y01457500D02*
D03*
M02*
