G04 Layer_Color=2752767*
%FSAX44Y44*%
%MOMM*%
G71*
G01*
G75*
%ADD61C,0.0508*%
%ADD62C,0.0677*%
D61*
X01067968Y01023168D02*
X01068984Y01025200D01*
X01067968Y01027232D01*
X01070000Y01026216D01*
X01072032Y01027232D01*
X01071016Y01025200D01*
X01072032Y01023168D01*
X01070000Y01024184D01*
X01067968Y01023168D01*
X01150468Y01115000D02*
X01152500Y01117032D01*
X01154532Y01115000D01*
X01152500Y01112968D01*
X01150468Y01115000D01*
Y01185000D02*
X01152500Y01187032D01*
X01154532Y01185000D01*
X01152500Y01182968D01*
X01150468Y01185000D01*
X01177968Y01235000D02*
X01180000Y01237032D01*
X01182032Y01235000D01*
X01180000Y01232968D01*
X01177968Y01235000D01*
X01169532Y01247500D02*
X01167500Y01245468D01*
X01165468Y01247500D01*
X01167500Y01249532D01*
X01169532Y01247500D01*
X01157032Y01295000D02*
X01155000Y01292968D01*
X01152968Y01295000D01*
X01155000Y01297032D01*
X01157032Y01295000D01*
X01220468Y01342500D02*
X01222500Y01344532D01*
X01224532Y01342500D01*
X01222500Y01340468D01*
X01220468Y01342500D01*
X01253968Y01291232D02*
X01258032D01*
X01256000Y01287168D01*
X01253968Y01291232D01*
Y01241016D02*
X01254984Y01240000D01*
X01253968Y01238984D01*
X01254984D01*
X01256000Y01237968D01*
X01257016Y01238984D01*
X01258032D01*
X01257016Y01240000D01*
X01258032Y01241016D01*
X01257016D01*
X01256000Y01242032D01*
X01254984Y01241016D01*
X01253968D01*
X01302968Y01250000D02*
X01305000Y01252032D01*
X01307032Y01250000D01*
X01305000Y01247968D01*
X01302968Y01250000D01*
X01330268Y01267968D02*
Y01272032D01*
X01334332D01*
Y01267968D01*
X01330268D01*
X01355668D02*
Y01272032D01*
X01359732D01*
Y01267968D01*
X01355668D01*
X01368985Y01317968D02*
X01371017D01*
Y01318984D01*
X01372033D01*
Y01321016D01*
X01371017D01*
Y01322032D01*
X01368985D01*
Y01321016D01*
X01367969D01*
Y01318984D01*
X01368985D01*
Y01317968D01*
X01445468Y01330000D02*
X01447500Y01332032D01*
X01449532Y01330000D01*
X01447500Y01327968D01*
X01445468Y01330000D01*
X01465000Y01282032D02*
X01467032Y01280000D01*
X01465000Y01277968D01*
X01462968Y01280000D01*
X01465000Y01282032D01*
X01483968Y01252032D02*
Y01251016D01*
X01484984Y01250000D01*
X01483968Y01248984D01*
Y01247968D01*
X01484984D01*
X01486000Y01248984D01*
X01487016Y01247968D01*
X01488032D01*
Y01248984D01*
X01487016Y01250000D01*
X01488032Y01251016D01*
Y01252032D01*
X01487016D01*
X01486000Y01251016D01*
X01484984Y01252032D01*
X01483968D01*
X01492968Y01212500D02*
X01495000Y01214532D01*
X01497032Y01212500D01*
X01495000Y01210468D01*
X01492968Y01212500D01*
X01508983Y01182032D02*
Y01181016D01*
X01507967D01*
Y01178984D01*
X01508983D01*
Y01177968D01*
X01511015D01*
Y01178984D01*
X01512031D01*
Y01181016D01*
X01511015D01*
Y01182032D01*
X01508983D01*
X01533984D02*
Y01181016D01*
X01532968D01*
Y01178984D01*
X01533984D01*
Y01177968D01*
X01536016D01*
Y01178984D01*
X01537032D01*
Y01181016D01*
X01536016D01*
Y01182032D01*
X01533984D01*
X01558985D02*
Y01181016D01*
X01557969D01*
Y01178984D01*
X01558985D01*
Y01177968D01*
X01561017D01*
Y01178984D01*
X01562033D01*
Y01181016D01*
X01561017D01*
Y01182032D01*
X01558985D01*
X01597968Y01150000D02*
X01600000Y01152032D01*
X01602032Y01150000D01*
X01600000Y01147968D01*
X01597968Y01150000D01*
X01590000Y01104532D02*
X01592032Y01102500D01*
X01590000Y01100468D01*
X01587968Y01102500D01*
X01590000Y01104532D01*
X01577500Y01042032D02*
X01579532Y01040000D01*
X01577500Y01037968D01*
X01575468Y01040000D01*
X01577500Y01042032D01*
X01625968Y01027232D02*
X01628000Y01026216D01*
X01630032Y01027232D01*
X01629016Y01025200D01*
X01630032Y01023168D01*
X01628000Y01024184D01*
X01625968Y01023168D01*
X01626984Y01025200D01*
X01625968Y01027232D01*
Y01088984D02*
X01626984D01*
X01628000Y01087968D01*
X01629016Y01088984D01*
X01630032D01*
X01629016Y01090000D01*
X01630032Y01091016D01*
X01629016D01*
X01628000Y01092032D01*
X01626984Y01091016D01*
X01625968D01*
X01626984Y01090000D01*
X01625968Y01088984D01*
X01628000Y01137168D02*
X01625968Y01141232D01*
X01630032D01*
X01628000Y01137168D01*
X01586032Y01247968D02*
Y01248984D01*
X01585016Y01250000D01*
X01586032Y01251016D01*
Y01252032D01*
X01585016D01*
X01584000Y01251016D01*
X01582984Y01252032D01*
X01581968D01*
Y01251016D01*
X01582984Y01250000D01*
X01581968Y01248984D01*
Y01247968D01*
X01582984D01*
X01584000Y01248984D01*
X01585016Y01247968D01*
X01586032D01*
X01567032Y01307500D02*
X01565000Y01305468D01*
X01562968Y01307500D01*
X01565000Y01309532D01*
X01567032Y01307500D01*
X01542032D02*
X01540000Y01305468D01*
X01537968Y01307500D01*
X01540000Y01309532D01*
X01542032Y01307500D01*
X01552968Y01257500D02*
X01555000Y01259532D01*
X01557032Y01257500D01*
X01555000Y01255468D01*
X01552968Y01257500D01*
X01620668Y01337968D02*
Y01342032D01*
X01624732D01*
Y01337968D01*
X01620668D01*
X01612032Y01386484D02*
Y01388516D01*
X01611016D01*
Y01389532D01*
X01608984D01*
Y01388516D01*
X01607968D01*
Y01386484D01*
X01608984D01*
Y01385468D01*
X01611016D01*
Y01386484D01*
X01612032D01*
X01632969D02*
X01633985D01*
Y01385468D01*
X01636017D01*
Y01386484D01*
X01637033D01*
Y01388516D01*
X01636017D01*
Y01389532D01*
X01633985D01*
Y01388516D01*
X01632969D01*
Y01386484D01*
X01587031D02*
Y01388516D01*
X01586015D01*
Y01389532D01*
X01583983D01*
Y01388516D01*
X01582967D01*
Y01386484D01*
X01583983D01*
Y01385468D01*
X01586015D01*
Y01386484D01*
X01587031D01*
X01595268Y01342032D02*
X01599332D01*
Y01337968D01*
X01595268D01*
Y01342032D01*
X01656968Y01455468D02*
X01657984D01*
X01659000Y01456484D01*
X01660016Y01455468D01*
X01661032D01*
Y01456484D01*
X01660016Y01457500D01*
X01661032Y01458516D01*
Y01459532D01*
X01660016D01*
X01659000Y01458516D01*
X01657984Y01459532D01*
X01656968D01*
Y01458516D01*
X01657984Y01457500D01*
X01656968Y01456484D01*
Y01455468D01*
X01587032Y01587500D02*
X01585000Y01585468D01*
X01582968Y01587500D01*
X01585000Y01589532D01*
X01587032Y01587500D01*
X01537033Y01586484D02*
Y01588516D01*
X01536017D01*
Y01589532D01*
X01533985D01*
Y01588516D01*
X01532969D01*
Y01586484D01*
X01533985D01*
Y01585468D01*
X01536017D01*
Y01586484D01*
X01537033D01*
X01512032D02*
Y01588516D01*
X01511016D01*
Y01589532D01*
X01508984D01*
Y01588516D01*
X01507968D01*
Y01586484D01*
X01508984D01*
Y01585468D01*
X01511016D01*
Y01586484D01*
X01512032D01*
X01520668Y01542032D02*
X01524732D01*
Y01537968D01*
X01520668D01*
Y01542032D01*
X01499332D02*
Y01537968D01*
X01495268D01*
Y01542032D01*
X01499332D01*
X01486015Y01585468D02*
Y01586484D01*
X01487031D01*
Y01588516D01*
X01486015D01*
Y01589532D01*
X01483983D01*
Y01588516D01*
X01482967D01*
Y01586484D01*
X01483983D01*
Y01585468D01*
X01486015D01*
X01432032Y01635000D02*
X01430000Y01632968D01*
X01427968Y01635000D01*
X01430000Y01637032D01*
X01432032Y01635000D01*
X01458968Y01655468D02*
X01459984D01*
X01461000Y01656484D01*
X01462016Y01655468D01*
X01463032D01*
Y01656484D01*
X01462016Y01657500D01*
X01463032Y01658516D01*
Y01659532D01*
X01462016D01*
X01461000Y01658516D01*
X01459984Y01659532D01*
X01458968D01*
Y01658516D01*
X01459984Y01657500D01*
X01458968Y01656484D01*
Y01655468D01*
X01412032Y01667500D02*
X01410000Y01665468D01*
X01407968Y01667500D01*
X01410000Y01669532D01*
X01412032Y01667500D01*
X01387032Y01727500D02*
X01385000Y01725468D01*
X01382968Y01727500D01*
X01385000Y01729532D01*
X01387032Y01727500D01*
X01327500Y01775468D02*
X01325468Y01777500D01*
X01327500Y01779532D01*
X01329532Y01777500D01*
X01327500Y01775468D01*
X01327568Y01707032D02*
X01331632D01*
Y01702968D01*
X01327568D01*
Y01707032D01*
X01352968D02*
X01357032D01*
Y01702968D01*
X01352968D01*
Y01707032D01*
Y01681632D02*
X01357032D01*
Y01677568D01*
X01352968D01*
Y01681632D01*
X01331632D02*
Y01677568D01*
X01327568D01*
Y01681632D01*
X01331632D01*
Y01656232D02*
Y01652168D01*
X01327568D01*
Y01656232D01*
X01331632D01*
X01352968D02*
X01357032D01*
Y01652168D01*
X01352968D01*
Y01656232D01*
Y01630832D02*
X01357032D01*
Y01626768D01*
X01352968D01*
Y01630832D01*
X01331632D02*
Y01626768D01*
X01327568D01*
Y01630832D01*
X01331632D01*
Y01605432D02*
Y01601368D01*
X01327568D01*
Y01605432D01*
X01331632D01*
X01352968D02*
X01357032D01*
Y01601368D01*
X01352968D01*
Y01605432D01*
X01350000Y01554532D02*
X01352032Y01552500D01*
X01350000Y01550468D01*
X01347968Y01552500D01*
X01350000Y01554532D01*
X01357968Y01500000D02*
X01360000Y01502032D01*
X01362032Y01500000D01*
X01360000Y01497968D01*
X01357968Y01500000D01*
X01355000Y01472032D02*
X01357032Y01470000D01*
X01355000Y01467968D01*
X01352968Y01470000D01*
X01355000Y01472032D01*
X01367968Y01470000D02*
X01370000Y01472032D01*
X01372032Y01470000D01*
X01370000Y01467968D01*
X01367968Y01470000D01*
X01400468Y01450000D02*
X01402500Y01452032D01*
X01404532Y01450000D01*
X01402500Y01447968D01*
X01400468Y01450000D01*
X01445468Y01410000D02*
X01447500Y01412032D01*
X01449532Y01410000D01*
X01447500Y01407968D01*
X01445468Y01410000D01*
X01439532Y01480000D02*
X01437500Y01477968D01*
X01435468Y01480000D01*
X01437500Y01482032D01*
X01439532Y01480000D01*
X01379532Y01500000D02*
X01377500Y01497968D01*
X01375468Y01500000D01*
X01377500Y01502032D01*
X01379532Y01500000D01*
X01382968Y01512500D02*
X01385000Y01514532D01*
X01387032Y01512500D01*
X01385000Y01510468D01*
X01382968Y01512500D01*
X01289532Y01530000D02*
X01287500Y01527968D01*
X01285468Y01530000D01*
X01287500Y01532032D01*
X01289532Y01530000D01*
X01290000Y01540468D02*
X01287968Y01542500D01*
X01290000Y01544532D01*
X01292032Y01542500D01*
X01290000Y01540468D01*
X01315468Y01505000D02*
X01317500Y01507032D01*
X01319532Y01505000D01*
X01317500Y01502968D01*
X01315468Y01505000D01*
X01271692Y01467032D02*
X01273724Y01465000D01*
X01271692Y01462968D01*
X01269660Y01465000D01*
X01271692Y01467032D01*
X01275468Y01450000D02*
X01277500Y01452032D01*
X01279532Y01450000D01*
X01277500Y01447968D01*
X01275468Y01450000D01*
X01300468Y01427500D02*
X01302500Y01429532D01*
X01304532Y01427500D01*
X01302500Y01425468D01*
X01300468Y01427500D01*
X01298032Y01392032D02*
X01297016D01*
X01296000Y01391016D01*
X01294984Y01392032D01*
X01293968D01*
Y01391016D01*
X01294984Y01390000D01*
X01293968Y01388984D01*
Y01387968D01*
X01294984D01*
X01296000Y01388984D01*
X01297016Y01387968D01*
X01298032D01*
Y01388984D01*
X01297016Y01390000D01*
X01298032Y01391016D01*
Y01392032D01*
X01318983Y01322032D02*
Y01321016D01*
X01317967D01*
Y01318984D01*
X01318983D01*
Y01317968D01*
X01321015D01*
Y01318984D01*
X01322031D01*
Y01321016D01*
X01321015D01*
Y01322032D01*
X01318983D01*
X01343984D02*
Y01321016D01*
X01342968D01*
Y01318984D01*
X01343984D01*
Y01317968D01*
X01346016D01*
Y01318984D01*
X01347032D01*
Y01321016D01*
X01346016D01*
Y01322032D01*
X01343984D01*
X01391968Y01387968D02*
X01392984D01*
X01394000Y01388984D01*
X01395016Y01387968D01*
X01396032D01*
Y01388984D01*
X01395016Y01390000D01*
X01396032Y01391016D01*
Y01392032D01*
X01395016D01*
X01394000Y01391016D01*
X01392984Y01392032D01*
X01391968D01*
Y01391016D01*
X01392984Y01390000D01*
X01391968Y01388984D01*
Y01387968D01*
X01497968Y01470000D02*
X01500000Y01472032D01*
X01502032Y01470000D01*
X01500000Y01467968D01*
X01497968Y01470000D01*
X01558968Y01459532D02*
Y01458516D01*
X01559984Y01457500D01*
X01558968Y01456484D01*
Y01455468D01*
X01559984D01*
X01561000Y01456484D01*
X01562016Y01455468D01*
X01563032D01*
Y01456484D01*
X01562016Y01457500D01*
X01563032Y01458516D01*
Y01459532D01*
X01562016D01*
X01561000Y01458516D01*
X01559984Y01459532D01*
X01558968D01*
X01557984Y01655468D02*
X01559000Y01656484D01*
X01560016Y01655468D01*
X01561032D01*
Y01656484D01*
X01560016Y01657500D01*
X01561032Y01658516D01*
Y01659532D01*
X01560016D01*
X01559000Y01658516D01*
X01557984Y01659532D01*
X01556968D01*
Y01658516D01*
X01557984Y01657500D01*
X01556968Y01656484D01*
Y01655468D01*
X01557984D01*
X01620668Y01737968D02*
Y01742032D01*
X01624732D01*
Y01737968D01*
X01620668D01*
X01612032Y01786484D02*
Y01788516D01*
X01611016D01*
Y01789532D01*
X01608984D01*
Y01788516D01*
X01607968D01*
Y01786484D01*
X01608984D01*
Y01785468D01*
X01611016D01*
Y01786484D01*
X01612032D01*
X01632969D02*
X01633985D01*
Y01785468D01*
X01636017D01*
Y01786484D01*
X01637033D01*
Y01788516D01*
X01636017D01*
Y01789532D01*
X01633985D01*
Y01788516D01*
X01632969D01*
Y01786484D01*
X01656968Y01855468D02*
X01657984D01*
X01659000Y01856484D01*
X01660016Y01855468D01*
X01661032D01*
Y01856484D01*
X01660016Y01857500D01*
X01661032Y01858516D01*
Y01859532D01*
X01660016D01*
X01659000Y01858516D01*
X01657984Y01859532D01*
X01656968D01*
Y01858516D01*
X01657984Y01857500D01*
X01656968Y01856484D01*
Y01855468D01*
X01599532Y01930000D02*
X01597500Y01927968D01*
X01595468Y01930000D01*
X01597500Y01932032D01*
X01599532Y01930000D01*
X01580000Y01897032D02*
X01582032Y01895000D01*
X01580000Y01892968D01*
X01577968Y01895000D01*
X01580000Y01897032D01*
X01529532Y01910000D02*
X01527500Y01907968D01*
X01525468Y01910000D01*
X01527500Y01912032D01*
X01529532Y01910000D01*
X01560468Y01887500D02*
X01562500Y01889532D01*
X01564532Y01887500D01*
X01562500Y01885468D01*
X01560468Y01887500D01*
X01559984Y01859532D02*
X01558968D01*
Y01858516D01*
X01559984Y01857500D01*
X01558968Y01856484D01*
Y01855468D01*
X01559984D01*
X01561000Y01856484D01*
X01562016Y01855468D01*
X01563032D01*
Y01856484D01*
X01562016Y01857500D01*
X01563032Y01858516D01*
Y01859532D01*
X01562016D01*
X01561000Y01858516D01*
X01559984Y01859532D01*
X01524532Y01862500D02*
X01522500Y01860468D01*
X01520468Y01862500D01*
X01522500Y01864532D01*
X01524532Y01862500D01*
X01480000Y01847227D02*
X01482032Y01845195D01*
X01480000Y01843163D01*
X01477968Y01845195D01*
X01480000Y01847227D01*
Y01832032D02*
X01482032Y01830000D01*
X01480000Y01827968D01*
X01477968Y01830000D01*
X01480000Y01832032D01*
X01460000Y01822032D02*
X01462032Y01820000D01*
X01460000Y01817968D01*
X01457968Y01820000D01*
X01460000Y01822032D01*
X01465468Y01855000D02*
X01467500Y01857032D01*
X01469532Y01855000D01*
X01467500Y01852968D01*
X01465468Y01855000D01*
X01454532D02*
X01452500Y01852968D01*
X01450468Y01855000D01*
X01452500Y01857032D01*
X01454532Y01855000D01*
X01520468Y01815000D02*
X01522500Y01817032D01*
X01524532Y01815000D01*
X01522500Y01812968D01*
X01520468Y01815000D01*
X01595268Y01742032D02*
X01599332D01*
Y01737968D01*
X01595268D01*
Y01742032D01*
X01586015Y01785468D02*
Y01786484D01*
X01587031D01*
Y01788516D01*
X01586015D01*
Y01789532D01*
X01583983D01*
Y01788516D01*
X01582967D01*
Y01786484D01*
X01583983D01*
Y01785468D01*
X01586015D01*
X01489532Y01952500D02*
X01487500Y01950468D01*
X01485468Y01952500D01*
X01487500Y01954532D01*
X01489532Y01952500D01*
X01517968Y02047500D02*
X01520000Y02049532D01*
X01522032Y02047500D01*
X01520000Y02045468D01*
X01517968Y02047500D01*
X01415000Y01949532D02*
X01417032Y01947500D01*
X01415000Y01945468D01*
X01412968Y01947500D01*
X01415000Y01949532D01*
X01398532Y01972968D02*
Y01973984D01*
X01397516Y01975000D01*
X01398532Y01976016D01*
Y01977032D01*
X01397516D01*
X01396500Y01976016D01*
X01395484Y01977032D01*
X01394468D01*
Y01976016D01*
X01395484Y01975000D01*
X01394468Y01973984D01*
Y01972968D01*
X01395484D01*
X01396500Y01973984D01*
X01397516Y01972968D01*
X01398532D01*
X01374533Y01906016D02*
X01373517D01*
Y01907032D01*
X01371485D01*
Y01906016D01*
X01370469D01*
Y01903984D01*
X01371485D01*
Y01902968D01*
X01373517D01*
Y01903984D01*
X01374533D01*
Y01906016D01*
X01349532D02*
X01348516D01*
Y01907032D01*
X01346484D01*
Y01906016D01*
X01345468D01*
Y01903984D01*
X01346484D01*
Y01902968D01*
X01348516D01*
Y01903984D01*
X01349532D01*
Y01906016D01*
X01324531D02*
X01323515D01*
Y01907032D01*
X01321483D01*
Y01906016D01*
X01320467D01*
Y01903984D01*
X01321483D01*
Y01902968D01*
X01323515D01*
Y01903984D01*
X01324531D01*
Y01906016D01*
X01332768Y01862032D02*
X01336832D01*
Y01857968D01*
X01332768D01*
Y01862032D01*
X01358168D02*
X01362232D01*
Y01857968D01*
X01358168D01*
Y01862032D01*
X01287032Y01865000D02*
X01285000Y01862968D01*
X01282968Y01865000D01*
X01285000Y01867032D01*
X01287032Y01865000D01*
X01244532D02*
X01242500Y01862968D01*
X01240468Y01865000D01*
X01242500Y01867032D01*
X01244532Y01865000D01*
X01272968Y01840000D02*
X01275000Y01842032D01*
X01277032Y01840000D01*
X01275000Y01837968D01*
X01272968Y01840000D01*
X01273250Y01777032D02*
X01275282Y01775000D01*
X01273250Y01772968D01*
X01271218Y01775000D01*
X01273250Y01777032D01*
X01244532Y01792500D02*
X01242500Y01790468D01*
X01240468Y01792500D01*
X01242500Y01794532D01*
X01244532Y01792500D01*
X01277968Y01765000D02*
X01280000Y01767032D01*
X01282032Y01765000D01*
X01280000Y01762968D01*
X01277968Y01765000D01*
X01280468Y01757000D02*
X01282500Y01759032D01*
X01284532Y01757000D01*
X01282500Y01754968D01*
X01280468Y01757000D01*
Y01707500D02*
X01282500Y01709532D01*
X01284532Y01707500D01*
X01282500Y01705468D01*
X01280468Y01707500D01*
X01224532Y01757500D02*
X01222500Y01755468D01*
X01220468Y01757500D01*
X01222500Y01759532D01*
X01224532Y01757500D01*
X01225000Y01767968D02*
X01222968Y01770000D01*
X01225000Y01772032D01*
X01227032Y01770000D01*
X01225000Y01767968D01*
X01190000Y01767032D02*
X01192032Y01765000D01*
X01190000Y01762968D01*
X01187968Y01765000D01*
X01190000Y01767032D01*
X01190468Y01727500D02*
X01192500Y01729532D01*
X01194532Y01727500D01*
X01192500Y01725468D01*
X01190468Y01727500D01*
X01231968Y01659532D02*
Y01658516D01*
X01232984Y01657500D01*
X01231968Y01656484D01*
Y01655468D01*
X01232984D01*
X01234000Y01656484D01*
X01235016Y01655468D01*
X01236032D01*
Y01656484D01*
X01235016Y01657500D01*
X01236032Y01658516D01*
Y01659532D01*
X01235016D01*
X01234000Y01658516D01*
X01232984Y01659532D01*
X01231968D01*
X01187032Y01588516D02*
X01186016D01*
Y01589532D01*
X01183984D01*
Y01588516D01*
X01182968D01*
Y01586484D01*
X01183984D01*
Y01585468D01*
X01186016D01*
Y01586484D01*
X01187032D01*
Y01588516D01*
X01162031D02*
X01161015D01*
Y01589532D01*
X01158983D01*
Y01588516D01*
X01157967D01*
Y01586484D01*
X01158983D01*
Y01585468D01*
X01161015D01*
Y01586484D01*
X01162031D01*
Y01588516D01*
X01170268Y01542032D02*
X01174332D01*
Y01537968D01*
X01170268D01*
Y01542032D01*
X01195668D02*
X01199732D01*
Y01537968D01*
X01195668D01*
Y01542032D01*
X01190000Y01499532D02*
X01192032Y01497500D01*
X01190000Y01495468D01*
X01187968Y01497500D01*
X01190000Y01499532D01*
X01187500Y01479532D02*
X01189532Y01477500D01*
X01187500Y01475468D01*
X01185468Y01477500D01*
X01187500Y01479532D01*
X01167500Y01412032D02*
X01169532Y01410000D01*
X01167500Y01407968D01*
X01165468Y01410000D01*
X01167500Y01412032D01*
X01202968Y01432500D02*
X01205000Y01434532D01*
X01207032Y01432500D01*
X01205000Y01430468D01*
X01202968Y01432500D01*
X01175000Y01362032D02*
X01177032Y01360000D01*
X01175000Y01357968D01*
X01172968Y01360000D01*
X01175000Y01362032D01*
X01137500Y01349532D02*
X01139532Y01347500D01*
X01137500Y01345468D01*
X01135468Y01347500D01*
X01137500Y01349532D01*
X01111017Y01385468D02*
Y01386484D01*
X01112033D01*
Y01388516D01*
X01111017D01*
Y01389532D01*
X01108985D01*
Y01388516D01*
X01107969D01*
Y01386484D01*
X01108985D01*
Y01385468D01*
X01111017D01*
X01086016D02*
Y01386484D01*
X01087032D01*
Y01388516D01*
X01086016D01*
Y01389532D01*
X01083984D01*
Y01388516D01*
X01082968D01*
Y01386484D01*
X01083984D01*
Y01385468D01*
X01086016D01*
X01095668Y01342032D02*
X01099732D01*
Y01337968D01*
X01095668D01*
Y01342032D01*
X01074332D02*
Y01337968D01*
X01070268D01*
Y01342032D01*
X01074332D01*
X01061015Y01385468D02*
Y01386484D01*
X01062031D01*
Y01388516D01*
X01061015D01*
Y01389532D01*
X01058983D01*
Y01388516D01*
X01057967D01*
Y01386484D01*
X01058983D01*
Y01385468D01*
X01061015D01*
X01107968Y01437500D02*
X01110000Y01439532D01*
X01112032Y01437500D01*
X01110000Y01435468D01*
X01107968Y01437500D01*
X01131968Y01455468D02*
X01132984D01*
X01134000Y01456484D01*
X01135016Y01455468D01*
X01136032D01*
Y01456484D01*
X01135016Y01457500D01*
X01136032Y01458516D01*
Y01459532D01*
X01135016D01*
X01134000Y01458516D01*
X01132984Y01459532D01*
X01131968D01*
Y01458516D01*
X01132984Y01457500D01*
X01131968Y01456484D01*
Y01455468D01*
X01082032Y01472500D02*
X01080000Y01470468D01*
X01077968Y01472500D01*
X01080000Y01474532D01*
X01082032Y01472500D01*
X01038032Y01459532D02*
X01037016D01*
X01036000Y01458516D01*
X01034984Y01459532D01*
X01033968D01*
Y01458516D01*
X01034984Y01457500D01*
X01033968Y01456484D01*
Y01455468D01*
X01034984D01*
X01036000Y01456484D01*
X01037016Y01455468D01*
X01038032D01*
Y01456484D01*
X01037016Y01457500D01*
X01038032Y01458516D01*
Y01459532D01*
X01065468Y01437500D02*
X01067500Y01439532D01*
X01069532Y01437500D01*
X01067500Y01435468D01*
X01065468Y01437500D01*
X01067968Y01291232D02*
X01072032D01*
X01070000Y01287168D01*
X01067968Y01291232D01*
Y01241016D02*
X01068984Y01240000D01*
X01067968Y01238984D01*
X01068984D01*
X01070000Y01237968D01*
X01071016Y01238984D01*
X01072032D01*
X01071016Y01240000D01*
X01072032Y01241016D01*
X01071016D01*
X01070000Y01242032D01*
X01068984Y01241016D01*
X01067968D01*
Y01177232D02*
X01070000Y01176216D01*
X01072032Y01177232D01*
X01071016Y01175200D01*
X01072032Y01173168D01*
X01070000Y01174184D01*
X01067968Y01173168D01*
X01068984Y01175200D01*
X01067968Y01177232D01*
Y01141232D02*
X01072032D01*
X01070000Y01137168D01*
X01067968Y01141232D01*
Y01091016D02*
X01068984Y01090000D01*
X01067968Y01088984D01*
X01068984D01*
X01070000Y01087968D01*
X01071016Y01088984D01*
X01072032D01*
X01071016Y01090000D01*
X01072032Y01091016D01*
X01071016D01*
X01070000Y01092032D01*
X01068984Y01091016D01*
X01067968D01*
X01122968Y01247500D02*
X01125000Y01249532D01*
X01127032Y01247500D01*
X01125000Y01245468D01*
X01122968Y01247500D01*
X01253968Y01141232D02*
X01258032D01*
X01256000Y01137168D01*
X01253968Y01141232D01*
Y01091016D02*
X01254984Y01090000D01*
X01253968Y01088984D01*
X01254984D01*
X01256000Y01087968D01*
X01257016Y01088984D01*
X01258032D01*
X01257016Y01090000D01*
X01258032Y01091016D01*
X01257016D01*
X01256000Y01092032D01*
X01254984Y01091016D01*
X01253968D01*
Y01027232D02*
X01256000Y01026216D01*
X01258032Y01027232D01*
X01257016Y01025200D01*
X01258032Y01023168D01*
X01256000Y01024184D01*
X01253968Y01023168D01*
X01254984Y01025200D01*
X01253968Y01027232D01*
X01327968Y01135000D02*
X01330000Y01137032D01*
X01332032Y01135000D01*
X01330000Y01132968D01*
X01327968Y01135000D01*
Y01195000D02*
X01330000Y01197032D01*
X01332032Y01195000D01*
X01330000Y01192968D01*
X01327968Y01195000D01*
X01439968Y01091016D02*
X01440984Y01090000D01*
X01439968Y01088984D01*
X01440984D01*
X01442000Y01087968D01*
X01443016Y01088984D01*
X01444032D01*
X01443016Y01090000D01*
X01444032Y01091016D01*
X01443016D01*
X01442000Y01092032D01*
X01440984Y01091016D01*
X01439968D01*
X01442000Y01137168D02*
X01439968Y01141232D01*
X01444032D01*
X01442000Y01137168D01*
X01507968Y01052500D02*
X01510000Y01054532D01*
X01512032Y01052500D01*
X01510000Y01050468D01*
X01507968Y01052500D01*
X01444032Y01027232D02*
X01443016Y01025200D01*
X01444032Y01023168D01*
X01442000Y01024184D01*
X01439968Y01023168D01*
X01440984Y01025200D01*
X01439968Y01027232D01*
X01442000Y01026216D01*
X01444032Y01027232D01*
X01258032Y01173168D02*
X01256000Y01174184D01*
X01253968Y01173168D01*
X01254984Y01175200D01*
X01253968Y01177232D01*
X01256000Y01176216D01*
X01258032Y01177232D01*
X01257016Y01175200D01*
X01258032Y01173168D01*
X01254532Y01605000D02*
X01252500Y01602968D01*
X01250468Y01605000D01*
X01252500Y01607032D01*
X01254532Y01605000D01*
X01212033Y01588516D02*
X01211017D01*
Y01589532D01*
X01208985D01*
Y01588516D01*
X01207969D01*
Y01586484D01*
X01208985D01*
Y01585468D01*
X01211017D01*
Y01586484D01*
X01212033D01*
Y01588516D01*
X01138032Y01655468D02*
Y01656484D01*
X01137016Y01657500D01*
X01138032Y01658516D01*
Y01659532D01*
X01137016D01*
X01136000Y01658516D01*
X01134984Y01659532D01*
X01133968D01*
Y01658516D01*
X01134984Y01657500D01*
X01133968Y01656484D01*
Y01655468D01*
X01134984D01*
X01136000Y01656484D01*
X01137016Y01655468D01*
X01138032D01*
X01127500Y01614532D02*
X01129532Y01612500D01*
X01127500Y01610468D01*
X01125468Y01612500D01*
X01127500Y01614532D01*
X01120000Y01577032D02*
X01122032Y01575000D01*
X01120000Y01572968D01*
X01117968Y01575000D01*
X01120000Y01577032D01*
X01089532Y01640000D02*
X01087500Y01637968D01*
X01085468Y01640000D01*
X01087500Y01642032D01*
X01089532Y01640000D01*
X01074532Y01627500D02*
X01072500Y01625468D01*
X01070468Y01627500D01*
X01072500Y01629532D01*
X01074532Y01627500D01*
X01020000Y01599532D02*
X01022032Y01597500D01*
X01020000Y01595468D01*
X01017968Y01597500D01*
X01020000Y01599532D01*
X01074332Y01737968D02*
X01070268D01*
Y01742032D01*
X01074332D01*
Y01737968D01*
X01095668D02*
Y01742032D01*
X01099732D01*
Y01737968D01*
X01095668D01*
X01086016Y01785468D02*
Y01786484D01*
X01087032D01*
Y01788516D01*
X01086016D01*
Y01789532D01*
X01083984D01*
Y01788516D01*
X01082968D01*
Y01786484D01*
X01083984D01*
Y01785468D01*
X01086016D01*
X01108985D02*
X01111017D01*
Y01786484D01*
X01112033D01*
Y01788516D01*
X01111017D01*
Y01789532D01*
X01108985D01*
Y01788516D01*
X01107969D01*
Y01786484D01*
X01108985D01*
Y01785468D01*
X01131968Y01855468D02*
X01132984D01*
X01134000Y01856484D01*
X01135016Y01855468D01*
X01136032D01*
Y01856484D01*
X01135016Y01857500D01*
X01136032Y01858516D01*
Y01859532D01*
X01135016D01*
X01134000Y01858516D01*
X01132984Y01859532D01*
X01131968D01*
Y01858516D01*
X01132984Y01857500D01*
X01131968Y01856484D01*
Y01855468D01*
X01112032Y01855000D02*
X01110000Y01852968D01*
X01107968Y01855000D01*
X01110000Y01857032D01*
X01112032Y01855000D01*
X01075000Y01834532D02*
X01077032Y01832500D01*
X01075000Y01830468D01*
X01072968Y01832500D01*
X01075000Y01834532D01*
X01038032Y01859532D02*
X01037016D01*
X01036000Y01858516D01*
X01034984Y01859532D01*
X01033968D01*
Y01858516D01*
X01034984Y01857500D01*
X01033968Y01856484D01*
Y01855468D01*
X01034984D01*
X01036000Y01856484D01*
X01037016Y01855468D01*
X01038032D01*
Y01856484D01*
X01037016Y01857500D01*
X01038032Y01858516D01*
Y01859532D01*
X01080468Y01905000D02*
X01082500Y01907032D01*
X01084532Y01905000D01*
X01082500Y01902968D01*
X01080468Y01905000D01*
X01074532Y01937500D02*
X01072500Y01935468D01*
X01070468Y01937500D01*
X01072500Y01939532D01*
X01074532Y01937500D01*
X01074532Y01952500D02*
X01072500Y01950468D01*
X01070468Y01952500D01*
X01072500Y01954532D01*
X01074532Y01952500D01*
X01075000Y01962968D02*
X01072968Y01965000D01*
X01075000Y01967032D01*
X01077032Y01965000D01*
X01075000Y01962968D01*
Y02002968D02*
X01072968Y02005000D01*
X01075000Y02007032D01*
X01077032Y02005000D01*
X01075000Y02002968D01*
X01050000Y01927032D02*
X01052032Y01925000D01*
X01050000Y01922968D01*
X01047968Y01925000D01*
X01050000Y01927032D01*
X01017032Y01932500D02*
X01015000Y01930468D01*
X01012968Y01932500D01*
X01015000Y01934532D01*
X01017032Y01932500D01*
X01058983Y01789532D02*
Y01788516D01*
X01057967D01*
Y01786484D01*
X01058983D01*
Y01785468D01*
X01061015D01*
Y01786484D01*
X01062031D01*
Y01788516D01*
X01061015D01*
Y01789532D01*
X01058983D01*
X01034532Y01747500D02*
X01032500Y01745468D01*
X01030468Y01747500D01*
X01032500Y01749532D01*
X01034532Y01747500D01*
X01207968Y01897500D02*
X01210000Y01899532D01*
X01212032Y01897500D01*
X01210000Y01895468D01*
X01207968Y01897500D01*
X01196280Y01913252D02*
X01194248Y01911220D01*
X01192216Y01913252D01*
X01194248Y01915284D01*
X01196280Y01913252D01*
X01183580Y01925952D02*
X01181548Y01923920D01*
X01179516Y01925952D01*
X01181548Y01927984D01*
X01183580Y01925952D01*
X01174532Y01940000D02*
X01172500Y01937968D01*
X01170468Y01940000D01*
X01172500Y01942032D01*
X01174532Y01940000D01*
X01296468Y01972968D02*
X01297484D01*
X01298500Y01973984D01*
X01299516Y01972968D01*
X01300532D01*
Y01973984D01*
X01299516Y01975000D01*
X01300532Y01976016D01*
Y01977032D01*
X01299516D01*
X01298500Y01976016D01*
X01297484Y01977032D01*
X01296468D01*
Y01976016D01*
X01297484Y01975000D01*
X01296468Y01973984D01*
Y01972968D01*
X01212032Y02045000D02*
X01210000Y02042968D01*
X01207968Y02045000D01*
X01210000Y02047032D01*
X01212032Y02045000D01*
X01425468Y01855000D02*
X01427500Y01857032D01*
X01429532Y01855000D01*
X01427500Y01852968D01*
X01425468Y01855000D01*
X01427968Y01830000D02*
X01430000Y01832032D01*
X01432032Y01830000D01*
X01430000Y01827968D01*
X01427968Y01830000D01*
X01407500Y01829532D02*
X01409532Y01827500D01*
X01407500Y01825468D01*
X01405468Y01827500D01*
X01407500Y01829532D01*
X01387500Y01794532D02*
X01389532Y01792500D01*
X01387500Y01790468D01*
X01385468Y01792500D01*
X01387500Y01794532D01*
X01677968Y02050000D02*
X01680000Y02052032D01*
X01682032Y02050000D01*
X01680000Y02047968D01*
X01677968Y02050000D01*
X01017500Y02044532D02*
X01019532Y02042500D01*
X01017500Y02040468D01*
X01015468Y02042500D01*
X01017500Y02044532D01*
D62*
X01072032Y01056200D02*
G03*
X01072032Y01056200I-00002032J00000000D01*
G01*
Y01206200D02*
G03*
X01072032Y01206200I-00002032J00000000D01*
G01*
X01258032Y01056200D02*
G03*
X01258032Y01056200I-00002032J00000000D01*
G01*
X01444032D02*
G03*
X01444032Y01056200I-00002032J00000000D01*
G01*
X01258032Y01206200D02*
G03*
X01258032Y01206200I-00002032J00000000D01*
G01*
X01630032Y01056200D02*
G03*
X01630032Y01056200I-00002032J00000000D01*
G01*
M02*
