M48
;Layer_Color=9474304
;FILE_FORMAT=4:4
METRIC
;TYPE=PLATED
T1F00S00C0.3000
T4F00S00C0.8999
T5F00S00C0.9000
%
T01
X01152500Y01115000
Y01185000
X01330000Y01135000
X01510000Y01052500
X01577500Y01040000
X01590000Y01102500
X01600000Y01150000
X01555000Y01257500
X01565000Y01307500
X01540000
X01465000Y01280000
X01447500Y01330000
Y01410000
X01437500Y01480000
X01402500Y01450000
X01370000Y01470000
X01355000
X01360000Y01500000
X01377500
X01385000Y01512500
X01317500Y01505000
X01287500Y01530000
X01290000Y01542500
X01350000Y01552500
X01271692Y01465000
X01277500Y01450000
X01302500Y01427500
X01205000Y01432500
X01222500Y01342500
X01305000Y01250000
X01330000Y01195000
X01495000Y01212500
X01500000Y01470000
X01187500Y01477500
X01190000Y01497500
X01167500Y01410000
X01175000Y01360000
X01137500Y01347500
X01155000Y01295000
X01167500Y01247500
X01180000Y01235000
X01125000Y01247500
X01110000Y01437500
X01067500Y01437500
X01080000Y01472500
X01120000Y01575000
X01127500Y01612500
X01087500Y01640000
X01072500Y01627500
X01020000Y01597500
X01032500Y01747500
X01075000Y01832500
X01110000Y01855000
X01082500Y01905000
X01072500Y01937500
X01072500Y01952500
X01075000Y01965000
X01050000Y01925000
X01015000Y01932500
X01172500Y01940000
X01181548Y01925952
X01190000Y01765000
X01225000Y01770000
X01222500Y01757500
X01242500Y01792500
X01273250Y01775000
X01280000Y01765000
X01282500Y01757000
Y01707500
X01192500Y01727500
X01252500Y01605000
X01430000Y01635000
X01410000Y01667500
X01385000Y01727500
X01387500Y01792500
X01407500Y01827500
X01430000Y01830000
X01427500Y01855000
X01452500
X01467500
X01480000Y01845195
Y01830000
X01460000Y01820000
X01522500Y01815000
Y01862500
X01527500Y01910000
X01562500Y01887500
X01580000Y01895000
X01487500Y01952500
X01415000Y01947500
X01285000Y01865000
X01275000Y01840000
X01242500Y01865000
X01210000Y01897500
X01194248Y01913252
X01327500Y01777500
X01585000Y01587500
X01597500Y01930000
X01680000Y02050000
X01520000Y02047500
X01210000Y02045000
X01075000Y02005000
X01017500Y02042500
T04
X01509999Y01180000
X01535000
X01560001
X01610000Y01387500
X01635001
X01584999
X01370001Y01320000
X01345000
X01319999
X01110001Y01387500
X01085000
X01059999
X01159999Y01587500
X01185000
X01110001Y01787500
X01085000
X01059999
X01210001Y01587500
X01484999
X01510000
X01535001
X01584999Y01787500
X01372501Y01905000
X01347500
X01322499
X01610000Y01787500
X01635001
T05
X01597300Y01340000
X01622700
X01522700Y01540000
X01497300
X01197700
X01332300Y01270000
X01357700
X01097700Y01340000
X01072300
X01172300Y01540000
X01097700Y01740000
X01072300
X01329600Y01705000
Y01679600
Y01654200
Y01628800
Y01603400
X01355000
Y01628800
Y01654200
Y01679600
Y01705000
X01360200Y01860000
X01334800
X01597300Y01740000
X01622700
M30
