G04 Layer_Color=65535*
%FSAX44Y44*%
%MOMM*%
G71*
G01*
G75*
%ADD12C,0.2000*%
%ADD34C,0.2540*%
%ADD35C,0.1270*%
%ADD36C,0.1600*%
D12*
X01110400Y01327300D02*
Y01352700D01*
X01210400Y01527300D02*
Y01552700D01*
X01110400Y01727300D02*
Y01752700D01*
X01372900Y01847300D02*
Y01872700D01*
X01635400Y01727300D02*
Y01752700D01*
X01535400Y01552700D02*
Y01527300D01*
X01635400Y01352700D02*
Y01327300D01*
X01370400Y01282700D02*
Y01257300D01*
D34*
X01110400Y01352700D02*
G03*
X01110400Y01327300I-00025400J-00012700D01*
G01*
X01210400Y01552700D02*
G03*
X01210400Y01527300I-00025400J-00012700D01*
G01*
X01370400Y01282700D02*
G03*
X01370400Y01257300I-00025400J-00012700D01*
G01*
X01635400Y01352700D02*
G03*
X01635400Y01327300I-00025400J-00012700D01*
G01*
X01535400Y01552700D02*
G03*
X01535400Y01527300I-00025400J-00012700D01*
G01*
X01635400Y01752700D02*
G03*
X01635400Y01727300I-00025400J-00012700D01*
G01*
X01372900Y01872700D02*
G03*
X01372900Y01847300I-00025400J-00012700D01*
G01*
X01110400Y01752700D02*
G03*
X01110400Y01727300I-00025400J-00012700D01*
G01*
D35*
X01025042Y01045042D02*
X01114958D01*
Y01144864D01*
Y01149944D01*
X01025042D01*
Y01144610D01*
Y01045042D01*
X01114958Y01195042D02*
Y01294864D01*
Y01299944D01*
X01025042D01*
Y01294610D01*
Y01195042D01*
X01114958D01*
X01211042Y01045042D02*
X01300958D01*
Y01144864D01*
Y01149944D01*
X01211042D01*
Y01144610D01*
Y01045042D01*
X01300958Y01195042D02*
Y01294864D01*
Y01299944D01*
X01211042D01*
Y01294610D01*
Y01195042D01*
X01300958D01*
X01397042Y01149944D02*
X01486958D01*
Y01144864D01*
Y01045042D01*
X01397042D01*
Y01144610D01*
Y01149944D01*
X01485000Y01180000D02*
Y01300000D01*
X01585000D01*
Y01180000D01*
X01485000D01*
X01583042Y01045042D02*
X01672958D01*
Y01144864D01*
Y01149944D01*
X01583042D01*
Y01144610D01*
Y01045042D01*
X01395000Y01320000D02*
Y01440000D01*
X01295000D01*
Y01320000D01*
X01395000D01*
X01560000Y01387500D02*
Y01507500D01*
X01660000D01*
Y01387500D01*
X01560000D01*
X01560000Y01587500D02*
Y01707500D01*
X01460000D01*
Y01587500D01*
X01560000D01*
X01660000Y01787500D02*
Y01907500D01*
X01560000D01*
Y01787500D01*
X01660000D01*
X01397500Y02025000D02*
Y01905000D01*
X01297500D01*
Y02025000D01*
X01397500D01*
X01135000Y01907500D02*
Y01787500D01*
X01035000D01*
Y01907500D01*
X01135000D01*
X01135000Y01707500D02*
X01235000D01*
Y01587500D01*
X01135000D01*
Y01707500D01*
X01035000Y01507500D02*
X01135000D01*
Y01387500D01*
X01035000D01*
Y01507500D01*
D36*
X01033999Y01126333D02*
X01032666Y01125000D01*
X01031333D01*
X01030000Y01126333D01*
X01032666Y01132997D02*
X01033999D01*
Y01126333D01*
X01037997Y01125000D02*
X01043329Y01130332D01*
Y01131665D01*
X01041996Y01132997D01*
X01039330D01*
X01037997Y01131665D01*
X01035332Y01132997D02*
X01032666D01*
X01037997Y01125000D02*
X01043329D01*
X01043163Y01277500D02*
X01041830D01*
Y01285497D01*
X01040497Y01284164D01*
X01037832Y01285497D02*
X01035166D01*
X01036499D01*
Y01278833D01*
X01035166Y01277500D01*
X01033833D01*
X01032500Y01278833D01*
X01040497Y01277500D02*
X01043163D01*
X01120000Y01335000D02*
X01123999D01*
X01125332Y01336333D01*
Y01341665D01*
X01123999Y01342997D01*
X01120000D01*
Y01335000D01*
X01127997D02*
X01130663D01*
X01129330D01*
Y01342997D01*
X01127997Y01341665D01*
X01134662D02*
X01135995Y01342997D01*
X01138661D01*
X01139994Y01341665D01*
Y01340332D01*
X01138661Y01338999D01*
X01137328D01*
X01138661D01*
X01139994Y01337666D01*
Y01336333D01*
X01138661Y01335000D01*
X01135995D01*
X01134662Y01336333D01*
X01215000Y01278833D02*
X01216333Y01277500D01*
X01217666D01*
X01218999Y01278833D01*
Y01285497D01*
X01217666D01*
X01220332D01*
X01222997Y01284164D02*
X01224330Y01285497D01*
X01226996D01*
X01228329Y01284164D01*
Y01282832D01*
X01226996Y01281499D01*
X01225663D01*
X01226996D01*
X01228329Y01280166D01*
Y01278833D01*
X01226996Y01277500D01*
X01224330D01*
X01222997Y01278833D01*
X01222832Y01127997D02*
X01220166D01*
X01221499D01*
Y01121333D01*
X01220166Y01120000D01*
X01218833D01*
X01217500Y01121333D01*
X01225497Y01123999D02*
X01230829D01*
X01229496Y01127997D02*
X01225497Y01123999D01*
X01229496Y01127997D02*
Y01120000D01*
X01375000Y01265000D02*
X01378999D01*
X01380332Y01266333D01*
Y01271665D01*
X01378999Y01272997D01*
X01375000D01*
Y01265000D01*
X01382997D02*
X01385663D01*
X01384330D01*
Y01272997D01*
X01382997Y01271665D01*
X01389662D02*
X01390995Y01272997D01*
X01393661D01*
X01394994Y01271665D01*
Y01270332D01*
X01389662Y01265000D01*
X01394994D01*
X01407666Y01127997D02*
X01408999D01*
Y01121333D01*
X01407666Y01120000D01*
X01406333D01*
X01405000Y01121333D01*
X01412997D02*
X01414330Y01120000D01*
X01416996D01*
X01418329Y01121333D01*
Y01123999D01*
X01416996Y01125332D01*
X01415663D01*
X01412997Y01123999D01*
Y01127997D01*
X01418329D01*
X01410332D02*
X01407666D01*
X01592666Y01125497D02*
X01593999D01*
Y01118833D01*
X01592666Y01117500D01*
X01591333D01*
X01590000Y01118833D01*
X01597997D02*
X01599330Y01117500D01*
X01601996D01*
X01603329Y01118833D01*
Y01120166D01*
X01601996Y01121499D01*
X01597997D01*
Y01118833D01*
Y01121499D02*
X01600663Y01124165D01*
X01603329Y01125497D01*
X01595332D02*
X01592666D01*
X01539994Y01282500D02*
X01537328D01*
X01535995Y01283833D01*
Y01289164D01*
X01537328Y01290497D01*
X01539994D01*
X01541326Y01289164D01*
Y01283833D01*
X01539994Y01282500D01*
X01533329D02*
X01527997D01*
X01533329Y01287832D01*
Y01289164D01*
X01531996Y01290497D01*
X01529330D01*
X01527997Y01289164D01*
X01525332D02*
Y01286499D01*
X01523999Y01285166D01*
X01520000D01*
Y01282500D02*
Y01290497D01*
X01523999D01*
X01525332Y01289164D01*
X01522666Y01285166D02*
X01525332Y01282500D01*
X01640000Y01335000D02*
X01643999D01*
X01645332Y01336333D01*
Y01341664D01*
X01643999Y01342997D01*
X01640000D01*
Y01335000D01*
X01647997D02*
X01650663D01*
X01649330D01*
Y01342997D01*
X01647997Y01341664D01*
X01654662D02*
X01655995Y01342997D01*
Y01335000D01*
X01657328D01*
X01654662D01*
X01617991Y01490000D02*
X01615325D01*
X01613992Y01491333D01*
Y01493999D02*
X01616658Y01495332D01*
X01617991D01*
X01619324Y01493999D01*
Y01491333D01*
X01617991Y01490000D01*
X01613992Y01493999D02*
Y01497997D01*
X01619324D01*
X01611326D02*
X01608661D01*
Y01490000D01*
X01601996D02*
X01603329Y01491333D01*
Y01496664D01*
X01601996Y01497997D01*
X01599330D01*
X01597997Y01496664D01*
Y01491333D01*
X01599330Y01490000D01*
X01601996D01*
X01593999Y01492666D02*
X01590000D01*
Y01490000D02*
Y01497997D01*
X01593999D01*
X01595332Y01496664D01*
Y01493999D01*
X01593999Y01492666D01*
X01605995Y01497997D02*
X01611326D01*
X01558661Y01535000D02*
X01555995D01*
X01554662Y01536333D01*
Y01541664D01*
X01555995Y01542997D01*
X01558661D01*
X01559994Y01541664D01*
Y01536333D01*
X01558661Y01535000D01*
X01550663D02*
X01549330D01*
Y01542997D01*
X01547997Y01541664D01*
X01545332D02*
X01543999Y01542997D01*
X01540000D01*
Y01535000D01*
X01543999D01*
X01545332Y01536333D01*
Y01541664D01*
X01547997Y01535000D02*
X01550663D01*
X01517991Y01690000D02*
Y01697997D01*
X01513992Y01693999D01*
X01519324D01*
X01508661Y01690000D02*
Y01697997D01*
X01511326D01*
X01505995D01*
X01501996D02*
X01499330D01*
X01497997Y01696664D01*
Y01691333D01*
X01499330Y01690000D01*
X01501996D01*
X01503329Y01691333D01*
Y01696664D01*
X01501996Y01697997D01*
X01493999D02*
X01495332Y01696664D01*
Y01693999D01*
X01493999Y01692666D01*
X01490000D01*
Y01690000D02*
Y01697997D01*
X01493999D01*
X01640000Y01735000D02*
X01643999D01*
X01645332Y01736333D01*
Y01741664D01*
X01643999Y01742997D01*
X01640000D01*
Y01735000D01*
X01649330D02*
X01651996D01*
X01653329Y01736333D01*
Y01741664D01*
X01651996Y01742997D01*
X01649330D01*
X01647997Y01741664D01*
Y01740332D01*
X01649330Y01738999D01*
X01653329D01*
X01647997Y01736333D02*
X01649330Y01735000D01*
X01620491Y01892500D02*
X01617825D01*
X01616492Y01893833D01*
Y01899164D02*
X01617825Y01900497D01*
X01620491D01*
X01621824Y01899164D01*
Y01897832D01*
X01620491Y01896499D01*
X01619158D01*
X01620491D01*
X01621824Y01895166D01*
Y01893833D01*
X01620491Y01892500D01*
X01613826Y01900497D02*
X01611161D01*
Y01892500D01*
X01604496D02*
X01605829Y01893833D01*
Y01899164D01*
X01604496Y01900497D01*
X01601830D01*
X01600497Y01899164D01*
Y01893833D01*
X01601830Y01892500D01*
X01604496D01*
X01596499Y01895166D02*
X01592500D01*
Y01892500D02*
Y01900497D01*
X01596499D01*
X01597832Y01899164D01*
Y01896499D01*
X01596499Y01895166D01*
X01608495Y01900497D02*
X01613826D01*
X01389496Y01862997D02*
X01390829Y01861664D01*
Y01860332D01*
X01389496Y01858999D01*
X01390829Y01857666D01*
Y01856333D01*
X01389496Y01855000D01*
X01386830D01*
X01385497Y01856333D01*
Y01857666D01*
X01386830Y01858999D01*
X01385497Y01860332D01*
Y01861664D01*
X01386830Y01862997D01*
X01389496D01*
X01382832Y01861664D02*
X01381499Y01862997D01*
X01377500D01*
Y01855000D01*
X01381499D01*
X01382832Y01856333D01*
Y01861664D01*
X01386830Y01858999D02*
X01389496D01*
X01359324Y02010000D02*
X01353992D01*
X01359324Y02015332D01*
Y02016664D01*
X01357991Y02017997D01*
X01355325D01*
X01353992Y02016664D01*
X01351326Y02017997D02*
X01348661D01*
Y02010000D01*
X01341996D02*
X01343329Y02011333D01*
Y02016664D01*
X01341996Y02017997D01*
X01339330D01*
X01337997Y02016664D01*
Y02011333D01*
X01339330Y02010000D01*
X01341996D01*
X01333999Y02012666D02*
X01330000D01*
Y02010000D02*
Y02017997D01*
X01333999D01*
X01335332Y02016664D01*
Y02013999D01*
X01333999Y02012666D01*
X01345995Y02017997D02*
X01351326D01*
X01128329Y01742997D02*
Y01741664D01*
X01122997Y01736333D01*
Y01735000D01*
X01118999D02*
X01120332Y01736333D01*
Y01741664D01*
X01118999Y01742997D01*
X01115000D01*
Y01735000D01*
X01118999D01*
X01165000Y01692500D02*
Y01700497D01*
X01168999D01*
X01170332Y01699164D01*
Y01696499D01*
X01168999Y01695166D01*
X01165000D01*
X01172997Y01699164D02*
Y01693833D01*
X01174330Y01692500D01*
X01176996D01*
X01178329Y01693833D01*
Y01699164D01*
X01176996Y01700497D01*
X01174330D01*
X01172997Y01699164D01*
X01180995Y01700497D02*
X01186327D01*
X01183661D01*
Y01692500D01*
X01190325D02*
X01188992Y01693833D01*
Y01695166D01*
X01190325Y01696499D01*
X01188992Y01697832D01*
Y01699164D01*
X01190325Y01700497D01*
X01192991D01*
X01194324Y01699164D01*
Y01697832D01*
X01192991Y01696499D01*
X01194324Y01695166D01*
Y01693833D01*
X01192991Y01692500D01*
X01190325D01*
Y01696499D02*
X01192991D01*
X01128329Y01742997D02*
X01122997D01*
X01096658Y01887500D02*
X01095325D01*
Y01895497D01*
X01093992Y01894164D01*
X01091326Y01895497D02*
X01088661D01*
Y01887500D01*
X01093992D02*
X01096658D01*
X01091326Y01895497D02*
X01085995D01*
X01081996D02*
X01079330D01*
X01077997Y01894164D01*
Y01888833D01*
X01079330Y01887500D01*
X01081996D01*
X01083329Y01888833D01*
Y01894164D01*
X01081996Y01895497D01*
X01075332Y01894164D02*
Y01891499D01*
X01073999Y01890166D01*
X01070000D01*
Y01887500D02*
Y01895497D01*
X01073999D01*
X01075332Y01894164D01*
X01220000Y01542997D02*
Y01535000D01*
X01223999D01*
X01225332Y01536333D01*
Y01541664D01*
X01223999Y01542997D01*
X01220000D01*
X01227997Y01541664D02*
X01229330Y01542997D01*
Y01535000D01*
X01230663D01*
X01227997D01*
X01238661D02*
Y01542997D01*
X01234662Y01538999D01*
X01239994D01*
X01327500Y01427997D02*
X01331499D01*
X01332832Y01426664D01*
Y01423999D01*
X01331499Y01422666D01*
X01327500D01*
Y01420000D02*
Y01427997D01*
X01335497Y01426664D02*
Y01421333D01*
X01336830Y01420000D01*
X01339496D01*
X01340829Y01421333D01*
Y01426664D01*
X01339496Y01427997D01*
X01336830D01*
X01335497Y01426664D01*
X01343495Y01427997D02*
X01348826D01*
X01346161D01*
Y01420000D01*
X01351492Y01421333D02*
X01352825Y01420000D01*
X01355491D01*
X01356824Y01421333D01*
Y01422666D01*
X01355491Y01423999D01*
X01351492D01*
Y01421333D01*
Y01423999D02*
X01354158Y01426664D01*
X01356824Y01427997D01*
X01096824Y01494164D02*
X01091492Y01488833D01*
Y01487500D01*
X01086161D02*
Y01495497D01*
X01088826D01*
X01083495D01*
X01079496D02*
X01076830D01*
X01075497Y01494164D01*
Y01488833D01*
X01076830Y01487500D01*
X01079496D01*
X01080829Y01488833D01*
Y01494164D01*
X01079496Y01495497D01*
X01091492D02*
X01096824D01*
Y01494164D01*
X01072832D02*
Y01491499D01*
X01071499Y01490166D01*
X01067500D01*
Y01495497D02*
X01071499D01*
X01072832Y01494164D01*
X01067500Y01495497D02*
Y01487500D01*
M02*
