M48
;Layer_Color=9474304
;FILE_FORMAT=4:4
METRIC
;TYPE=PLATED
T2F00S00C0.6000
T3F00S00C0.7000
T6F00S00C1.2000
%
G90
G05
T02
G00X01065000Y01139200
M15
G01X01075000
M16
G00X01251000Y01139200
M15
G01X01261000
M16
G00X01437000Y01139200
M15
G01X01447000
M16
G00X01623000Y01139200
M15
G01X01633000
M16
G00X01251000Y01289200
M15
G01X01261000
M16
G00X01065000Y01289200
M15
G01X01075000
M16
T03
G00X01066500Y01025200
M15
G01X01073500
M16
G00X01065000Y01056200
M15
G01X01075000
M16
G00X01066500Y01175200
M15
G01X01073500
M16
G00X01252500Y01175200
M15
G01X01259500
M16
G00X01251000Y01056200
M15
G01X01261000
M16
G00X01252500Y01025200
M15
G01X01259500
M16
G00X01438500Y01025200
M15
G01X01445500
M16
G00X01437000Y01056200
M15
G01X01447000
M16
G00X01623000Y01056200
M15
G01X01633000
M16
G00X01624500Y01025200
M15
G01X01631500
M16
G00X01251000Y01206200
M15
G01X01261000
M16
G00X01065000Y01206200
M15
G01X01075000
M16
T06
G00X01659000Y01450500
M15
G01Y01464500
M16
G00X01561000Y01450500
M15
G01Y01464500
M16
G00X01584000Y01243000
M15
G01Y01257000
M16
G00X01486000Y01243000
M15
G01Y01257000
M16
G00X01394000Y01383000
M15
G01Y01397000
M16
G00X01296000Y01383000
M15
G01Y01397000
M16
G00X01134000Y01450500
M15
G01Y01464500
M16
G00X01036000Y01450500
M15
G01Y01464500
M16
G00X01136000Y01650500
M15
G01Y01664500
M16
G00X01134000Y01850500
M15
G01Y01864500
M16
G00X01036000Y01850500
M15
G01Y01864500
M16
G00X01298500Y01968000
M15
G01Y01982000
M16
G00X01396500Y01968000
M15
G01Y01982000
M16
G00X01561000Y01850500
M15
G01Y01864500
M16
G00X01559000Y01650500
M15
G01Y01664500
M16
G00X01461000Y01650500
M15
G01Y01664500
M16
G00X01234000Y01650500
M15
G01Y01664500
M16
G00X01659000Y01850500
M15
G01Y01864500
M16
M17
M30
