G04 Layer_Color=128*
%FSAX44Y44*%
%MOMM*%
G71*
G01*
G75*
%ADD13C,0.0508*%
D13*
X01070000Y00901000D02*
Y00939000D01*
X01051000Y00920000D02*
X01089000D01*
X01256000Y01056000D02*
Y01124000D01*
X01222000Y01090000D02*
X01290000D01*
X01256000Y01206000D02*
Y01274000D01*
X01222000Y01240000D02*
X01290000D01*
X01345000Y01254500D02*
Y01285500D01*
X01329500Y01270000D02*
X01360500D01*
X01385000Y01390000D02*
X01305000D01*
X01345000Y01350000D02*
Y01430000D01*
X01185000Y01524500D02*
Y01555500D01*
X01200500Y01540000D02*
X01169500D01*
X01125000Y01457500D02*
X01045000D01*
X01085000Y01417500D02*
Y01497500D01*
Y01355500D02*
Y01324500D01*
X01069500Y01340000D02*
X01100500D01*
X01070000Y01274000D02*
Y01206000D01*
X01104000Y01240000D02*
X01036000D01*
Y01090000D02*
X01104000D01*
X01070000Y01124000D02*
Y01056000D01*
X01408000Y01090000D02*
X01476000D01*
X01442000Y01124000D02*
Y01056000D01*
X01609000Y00920000D02*
X01647000D01*
X01628000Y00939000D02*
Y00901000D01*
Y01056000D02*
Y01124000D01*
X01662000Y01090000D02*
X01594000D01*
X01535000Y01215000D02*
Y01285000D01*
X01570000Y01250000D02*
X01500000D01*
X01594500Y01340000D02*
X01625500D01*
X01610000Y01355500D02*
Y01324500D01*
Y01417500D02*
Y01497500D01*
X01570000Y01457500D02*
X01650000D01*
X01525500Y01540000D02*
X01494500D01*
X01510000Y01524500D02*
Y01555500D01*
Y01617500D02*
Y01697500D01*
X01550000Y01657500D02*
X01470000D01*
X01594500Y01740000D02*
X01625500D01*
X01610000Y01755500D02*
Y01724500D01*
Y01817500D02*
Y01897500D01*
X01570000Y01857500D02*
X01650000D01*
X01628000Y02126000D02*
Y02164000D01*
X01647000Y02145000D02*
X01609000D01*
X01387500Y01975000D02*
X01307500D01*
X01347500Y01935000D02*
Y02015000D01*
Y01875500D02*
Y01844500D01*
X01332000Y01860000D02*
X01363000D01*
X01225000Y01657500D02*
X01145000D01*
X01185000Y01617500D02*
Y01697500D01*
X01100500Y01740000D02*
X01069500D01*
X01085000Y01724500D02*
Y01755500D01*
Y01817500D02*
Y01897500D01*
X01045000Y01857500D02*
X01125000D01*
X01070000Y02126000D02*
Y02164000D01*
X01051000Y02145000D02*
X01089000D01*
M02*
