G04 Layer_Color=65535*
%FSAX44Y44*%
%MOMM*%
G71*
G01*
G75*
%ADD10C,0.3000*%
G36*
X01315702Y00907549D02*
X01311406D01*
Y00912772D01*
Y00916678D01*
X01299885D01*
Y00912772D01*
Y00907549D01*
X01295589D01*
Y00937035D01*
X01299885D01*
Y00931909D01*
Y00924342D01*
Y00920535D01*
Y00920486D01*
X01311406D01*
Y00920535D01*
Y00924342D01*
Y00931909D01*
Y00937035D01*
X01315702D01*
Y00907549D01*
D02*
G37*
G36*
X01256987Y01168580D02*
X01257299Y01168541D01*
X01257689Y01168502D01*
X01258080Y01168424D01*
X01258509Y01168268D01*
X01258939Y01168112D01*
X01258978Y01168073D01*
X01259134Y01168034D01*
X01259368Y01167916D01*
X01259641Y01167760D01*
X01259954Y01167565D01*
X01260305Y01167292D01*
X01260617Y01167018D01*
X01260969Y01166706D01*
X01261008Y01166667D01*
X01261125Y01166550D01*
X01261281Y01166355D01*
X01261476Y01166121D01*
X01261711Y01165847D01*
X01261945Y01165496D01*
X01262179Y01165106D01*
X01262374Y01164676D01*
X01262413Y01164637D01*
X01262452Y01164481D01*
X01262530Y01164247D01*
X01262647Y01163934D01*
X01262726Y01163583D01*
X01262804Y01163154D01*
X01262843Y01162724D01*
X01262882Y01162216D01*
Y01162178D01*
Y01162060D01*
Y01161904D01*
X01262843Y01161709D01*
X01262804Y01161241D01*
X01262647Y01160694D01*
Y01160655D01*
X01262608Y01160577D01*
X01262569Y01160460D01*
X01262491Y01160304D01*
X01262335Y01159874D01*
X01262101Y01159445D01*
Y01159406D01*
X01262023Y01159328D01*
X01261984Y01159249D01*
X01261867Y01159093D01*
X01261632Y01158742D01*
X01261320Y01158352D01*
Y01158313D01*
X01261242Y01158273D01*
X01261047Y01158078D01*
X01260773Y01157805D01*
X01260422Y01157493D01*
X01260500Y01157454D01*
X01260656Y01157337D01*
X01260930Y01157180D01*
X01261242Y01156907D01*
X01261632Y01156595D01*
X01262023Y01156204D01*
X01262374Y01155736D01*
X01262726Y01155228D01*
X01262765Y01155150D01*
X01262843Y01154994D01*
X01262999Y01154682D01*
X01263155Y01154292D01*
X01263311Y01153784D01*
X01263467Y01153237D01*
X01263545Y01152574D01*
X01263584Y01151910D01*
Y01151832D01*
Y01151676D01*
X01263545Y01151403D01*
X01263506Y01151051D01*
X01263428Y01150622D01*
X01263350Y01150192D01*
X01263194Y01149685D01*
X01262999Y01149216D01*
X01262960Y01149177D01*
X01262882Y01149021D01*
X01262765Y01148787D01*
X01262608Y01148475D01*
X01262413Y01148123D01*
X01262140Y01147772D01*
X01261867Y01147381D01*
X01261515Y01147030D01*
X01261476Y01146991D01*
X01261359Y01146874D01*
X01261164Y01146718D01*
X01260891Y01146484D01*
X01260578Y01146249D01*
X01260227Y01146015D01*
X01259798Y01145781D01*
X01259329Y01145547D01*
X01259290Y01145508D01*
X01259095Y01145469D01*
X01258861Y01145390D01*
X01258548Y01145273D01*
X01258119Y01145156D01*
X01257689Y01145078D01*
X01257182Y01145039D01*
X01256674Y01145000D01*
X01247500D01*
Y01168619D01*
X01256752D01*
X01256987Y01168580D01*
D02*
G37*
G36*
X01442415D02*
X01442727Y01168541D01*
X01443430Y01168463D01*
X01444250Y01168307D01*
X01445147Y01168073D01*
X01446084Y01167760D01*
X01447021Y01167331D01*
X01447060D01*
X01447139Y01167292D01*
X01447256Y01167214D01*
X01447451Y01167096D01*
X01447880Y01166823D01*
X01448466Y01166433D01*
X01449090Y01165925D01*
X01449754Y01165340D01*
X01450457Y01164637D01*
X01451082Y01163856D01*
X01448271Y01161748D01*
X01448232Y01161826D01*
X01448075Y01162021D01*
X01447841Y01162334D01*
X01447529Y01162685D01*
X01447099Y01163114D01*
X01446631Y01163544D01*
X01446084Y01163973D01*
X01445460Y01164364D01*
X01445382Y01164403D01*
X01445147Y01164520D01*
X01444796Y01164676D01*
X01444328Y01164871D01*
X01443781Y01165067D01*
X01443156Y01165223D01*
X01442415Y01165340D01*
X01441673Y01165379D01*
X01441400D01*
X01441048Y01165340D01*
X01440658Y01165301D01*
X01440150Y01165223D01*
X01439643Y01165067D01*
X01439057Y01164910D01*
X01438511Y01164676D01*
X01438433Y01164637D01*
X01438276Y01164559D01*
X01438003Y01164403D01*
X01437652Y01164208D01*
X01437261Y01163934D01*
X01436832Y01163622D01*
X01436402Y01163271D01*
X01435973Y01162841D01*
X01435934Y01162802D01*
X01435778Y01162646D01*
X01435583Y01162373D01*
X01435348Y01162060D01*
X01435075Y01161670D01*
X01434763Y01161201D01*
X01434490Y01160694D01*
X01434216Y01160108D01*
X01434177Y01160030D01*
X01434138Y01159835D01*
X01434021Y01159523D01*
X01433904Y01159132D01*
X01433787Y01158625D01*
X01433709Y01158078D01*
X01433631Y01157454D01*
X01433592Y01156790D01*
Y01156712D01*
Y01156478D01*
X01433631Y01156126D01*
X01433670Y01155697D01*
X01433748Y01155189D01*
X01433865Y01154604D01*
X01434021Y01154018D01*
X01434216Y01153433D01*
X01434255Y01153354D01*
X01434333Y01153159D01*
X01434490Y01152886D01*
X01434685Y01152535D01*
X01434919Y01152105D01*
X01435231Y01151637D01*
X01435583Y01151207D01*
X01435973Y01150739D01*
X01436012Y01150700D01*
X01436168Y01150544D01*
X01436402Y01150348D01*
X01436715Y01150075D01*
X01437066Y01149763D01*
X01437496Y01149490D01*
X01438003Y01149177D01*
X01438511Y01148904D01*
X01438589Y01148865D01*
X01438784Y01148787D01*
X01439057Y01148709D01*
X01439448Y01148592D01*
X01439955Y01148436D01*
X01440463Y01148357D01*
X01441048Y01148279D01*
X01441673Y01148240D01*
X01442024D01*
X01442415Y01148279D01*
X01442922Y01148357D01*
X01443508Y01148475D01*
X01444132Y01148670D01*
X01444796Y01148904D01*
X01445460Y01149216D01*
X01445499D01*
X01445538Y01149255D01*
X01445733Y01149411D01*
X01446045Y01149607D01*
X01446475Y01149919D01*
X01446904Y01150270D01*
X01447373Y01150739D01*
X01447841Y01151246D01*
X01448271Y01151832D01*
X01451082Y01149724D01*
Y01149685D01*
X01451003Y01149646D01*
X01450925Y01149529D01*
X01450808Y01149372D01*
X01450457Y01148982D01*
X01449988Y01148475D01*
X01449403Y01147928D01*
X01448700Y01147342D01*
X01447919Y01146757D01*
X01447021Y01146249D01*
X01446982D01*
X01446904Y01146210D01*
X01446787Y01146132D01*
X01446592Y01146054D01*
X01446358Y01145976D01*
X01446084Y01145859D01*
X01445811Y01145742D01*
X01445460Y01145625D01*
X01444640Y01145390D01*
X01443742Y01145195D01*
X01442727Y01145039D01*
X01441673Y01145000D01*
X01441243D01*
X01441048Y01145039D01*
X01440814D01*
X01440189Y01145117D01*
X01439487Y01145234D01*
X01438745Y01145390D01*
X01437925Y01145586D01*
X01437105Y01145898D01*
X01437066D01*
X01437027Y01145937D01*
X01436910Y01146015D01*
X01436754Y01146054D01*
X01436364Y01146288D01*
X01435856Y01146562D01*
X01435270Y01146913D01*
X01434646Y01147381D01*
X01434021Y01147850D01*
X01433396Y01148436D01*
X01433318Y01148514D01*
X01433123Y01148709D01*
X01432850Y01149060D01*
X01432498Y01149490D01*
X01432108Y01150036D01*
X01431679Y01150700D01*
X01431288Y01151403D01*
X01430898Y01152183D01*
Y01152222D01*
X01430859Y01152300D01*
X01430820Y01152418D01*
X01430742Y01152574D01*
X01430703Y01152769D01*
X01430625Y01153003D01*
X01430468Y01153550D01*
X01430273Y01154252D01*
X01430156Y01155033D01*
X01430039Y01155892D01*
X01430000Y01156790D01*
Y01156829D01*
Y01156907D01*
Y01157024D01*
Y01157219D01*
X01430039Y01157415D01*
Y01157688D01*
X01430117Y01158273D01*
X01430234Y01159015D01*
X01430390Y01159757D01*
X01430586Y01160577D01*
X01430898Y01161397D01*
Y01161436D01*
X01430937Y01161475D01*
X01431015Y01161592D01*
X01431054Y01161748D01*
X01431288Y01162178D01*
X01431562Y01162685D01*
X01431913Y01163271D01*
X01432342Y01163895D01*
X01432850Y01164520D01*
X01433396Y01165145D01*
X01433474Y01165223D01*
X01433670Y01165418D01*
X01434021Y01165691D01*
X01434451Y01166081D01*
X01434997Y01166472D01*
X01435622Y01166901D01*
X01436324Y01167292D01*
X01437105Y01167682D01*
X01437144D01*
X01437222Y01167721D01*
X01437339Y01167760D01*
X01437496Y01167838D01*
X01437691Y01167916D01*
X01437925Y01167994D01*
X01438472Y01168151D01*
X01439174Y01168307D01*
X01439955Y01168463D01*
X01440775Y01168580D01*
X01441673Y01168619D01*
X01442180D01*
X01442415Y01168580D01*
D02*
G37*
G36*
X01452004Y00928639D02*
X01452346D01*
X01452737Y00928541D01*
X01453225Y00928443D01*
X01453713Y00928297D01*
X01454250Y00928053D01*
X01454787Y00927809D01*
X01454836Y00927760D01*
X01455031Y00927662D01*
X01455275Y00927516D01*
X01455617Y00927272D01*
X01455959Y00926979D01*
X01456349Y00926637D01*
X01456691Y00926198D01*
X01457033Y00925758D01*
X01453615Y00923415D01*
X01453566Y00923513D01*
X01453420Y00923659D01*
X01453176Y00923952D01*
X01452834Y00924196D01*
X01452737Y00924245D01*
X01452493Y00924391D01*
X01452102Y00924489D01*
X01451614Y00924538D01*
X01451272D01*
X01451077Y00924489D01*
X01450540Y00924342D01*
X01450003Y00924050D01*
X01449954D01*
X01449905Y00923952D01*
X01449710Y00923757D01*
X01449466Y00923366D01*
X01449417Y00923122D01*
X01449368Y00922878D01*
Y00922829D01*
Y00922780D01*
Y00922683D01*
Y00922634D01*
Y00922585D01*
X01449466Y00922390D01*
X01449563Y00922097D01*
X01449759Y00921853D01*
X01449807Y00921804D01*
X01450003Y00921657D01*
X01450247Y00921462D01*
X01450589Y00921316D01*
X01450637D01*
X01450735Y00921218D01*
X01450882Y00921169D01*
X01451126Y00921023D01*
X01451663Y00920730D01*
X01452346Y00920388D01*
X01452395D01*
X01452493Y00920291D01*
X01452688Y00920242D01*
X01452981Y00920095D01*
X01453615Y00919802D01*
X01454348Y00919412D01*
X01454397D01*
X01454494Y00919363D01*
X01454641Y00919265D01*
X01454787Y00919168D01*
X01455275Y00918875D01*
X01455812Y00918484D01*
X01456008Y00918240D01*
X01456056Y00918191D01*
X01456252Y00917996D01*
X01456544Y00917703D01*
X01456886Y00917313D01*
X01456935Y00917264D01*
X01456984Y00917166D01*
X01457081Y00917020D01*
X01457228Y00916776D01*
X01457521Y00916190D01*
X01457765Y00915506D01*
Y00915458D01*
X01457814Y00915360D01*
X01457863Y00915164D01*
X01457911Y00914920D01*
X01458058Y00914286D01*
Y00913553D01*
Y00913505D01*
Y00913309D01*
X01458009Y00913065D01*
X01457960Y00912772D01*
X01457863Y00912382D01*
X01457765Y00911943D01*
X01457619Y00911503D01*
X01457423Y00911064D01*
Y00911015D01*
X01457326Y00910869D01*
X01457228Y00910673D01*
X01457033Y00910380D01*
X01456593Y00909746D01*
X01455959Y00909111D01*
X01455910Y00909062D01*
X01455812Y00908965D01*
X01455617Y00908818D01*
X01455324Y00908623D01*
X01455031Y00908428D01*
X01454641Y00908232D01*
X01453762Y00907842D01*
X01453713D01*
X01453566Y00907793D01*
X01453322Y00907695D01*
X01452981Y00907646D01*
X01452590Y00907549D01*
X01452151Y00907451D01*
X01451174Y00907402D01*
X01451077D01*
X01450833Y00907451D01*
X01450491Y00907500D01*
X01450003Y00907549D01*
X01449466Y00907695D01*
X01448880Y00907842D01*
X01448245Y00908086D01*
X01447659Y00908379D01*
X01447611Y00908428D01*
X01447415Y00908525D01*
X01447122Y00908769D01*
X01446781Y00909013D01*
X01446439Y00909404D01*
X01446048Y00909794D01*
X01445658Y00910283D01*
X01445316Y00910820D01*
X01448782Y00913261D01*
Y00913212D01*
X01448831Y00913163D01*
X01448978Y00912821D01*
X01449222Y00912431D01*
X01449661Y00912040D01*
X01449710D01*
X01449807Y00911943D01*
X01449905Y00911894D01*
X01450100Y00911796D01*
X01450637Y00911650D01*
X01451272Y00911552D01*
X01451663D01*
X01451907Y00911601D01*
X01452493Y00911747D01*
X01452834Y00911894D01*
X01453127Y00912089D01*
X01453176Y00912138D01*
X01453274Y00912187D01*
X01453371Y00912333D01*
X01453518Y00912528D01*
X01453811Y00913017D01*
X01453859Y00913309D01*
X01453908Y00913651D01*
Y00913700D01*
Y00913798D01*
Y00913944D01*
X01453859Y00914090D01*
Y00914139D01*
Y00914188D01*
X01453811Y00914286D01*
Y00914335D01*
Y00914432D01*
Y00914481D01*
X01453762Y00914530D01*
X01453566Y00914823D01*
X01453225Y00915213D01*
X01452737Y00915555D01*
X01452639Y00915604D01*
X01452541Y00915653D01*
X01452395Y00915702D01*
Y00915750D01*
X01452297Y00915799D01*
X01452053Y00915946D01*
X01451663Y00916141D01*
X01451174Y00916385D01*
X01451126D01*
X01451077Y00916434D01*
X01450930Y00916483D01*
X01450735Y00916580D01*
X01450296Y00916776D01*
X01449759Y00917020D01*
X01449710D01*
X01449661Y00917068D01*
X01449319Y00917264D01*
X01448880Y00917459D01*
X01448392Y00917752D01*
X01448343D01*
X01448294Y00917801D01*
X01447952Y00917996D01*
X01447562Y00918289D01*
X01447074Y00918680D01*
Y00918728D01*
X01446976Y00918826D01*
X01446927Y00918875D01*
X01446830Y00918972D01*
X01446683Y00919168D01*
X01446488Y00919363D01*
X01446048Y00919949D01*
X01445658Y00920681D01*
Y00920730D01*
X01445560Y00920876D01*
X01445511Y00921072D01*
X01445414Y00921365D01*
X01445316Y00921706D01*
X01445267Y00922097D01*
X01445219Y00922536D01*
Y00922975D01*
Y00923024D01*
Y00923171D01*
X01445267Y00923415D01*
Y00923708D01*
X01445463Y00924440D01*
X01445560Y00924831D01*
X01445755Y00925221D01*
X01445804Y00925270D01*
X01445853Y00925416D01*
X01445951Y00925612D01*
X01446146Y00925856D01*
X01446537Y00926442D01*
X01447122Y00927028D01*
X01447171Y00927076D01*
X01447269Y00927174D01*
X01447464Y00927320D01*
X01447708Y00927467D01*
X01448001Y00927662D01*
X01448343Y00927857D01*
X01449173Y00928248D01*
X01449222D01*
X01449368Y00928297D01*
X01449612Y00928394D01*
X01449954Y00928492D01*
X01450296Y00928541D01*
X01450735Y00928639D01*
X01451711Y00928687D01*
X01451809D01*
X01452004Y00928639D01*
D02*
G37*
G36*
X01275476Y00936986D02*
X01276061Y00936938D01*
X01276696Y00936889D01*
X01277428Y00936742D01*
X01278209Y00936596D01*
X01278990Y00936352D01*
X01279039D01*
X01279088Y00936303D01*
X01279332Y00936205D01*
X01279723Y00936059D01*
X01280260Y00935864D01*
X01280846Y00935571D01*
X01281480Y00935278D01*
X01282164Y00934887D01*
X01282798Y00934448D01*
X01282896Y00934399D01*
X01283091Y00934253D01*
X01283433Y00934009D01*
X01283824Y00933667D01*
X01284312Y00933227D01*
X01284849Y00932739D01*
X01285386Y00932202D01*
X01285874Y00931568D01*
X01285923Y00931470D01*
X01286118Y00931275D01*
X01286362Y00930933D01*
X01286655Y00930494D01*
X01287046Y00929957D01*
X01287387Y00929322D01*
X01287778Y00928687D01*
X01288120Y00927955D01*
X01283140D01*
Y00928004D01*
X01283091Y00928053D01*
X01282896Y00928346D01*
X01282603Y00928736D01*
X01282213Y00929273D01*
X01281676Y00929810D01*
X01281090Y00930445D01*
X01280357Y00931031D01*
X01279576Y00931568D01*
X01279479Y00931617D01*
X01279186Y00931812D01*
X01278746Y00932007D01*
X01278112Y00932300D01*
X01277380Y00932544D01*
X01276550Y00932788D01*
X01275622Y00932935D01*
X01274646Y00932983D01*
X01274304D01*
X01273865Y00932935D01*
X01273376Y00932886D01*
X01272742Y00932788D01*
X01272107Y00932593D01*
X01271375Y00932398D01*
X01270691Y00932105D01*
X01270594Y00932056D01*
X01270398Y00931958D01*
X01270057Y00931763D01*
X01269617Y00931519D01*
X01269080Y00931177D01*
X01268543Y00930787D01*
X01268006Y00930347D01*
X01267469Y00929810D01*
X01267421Y00929761D01*
X01267225Y00929566D01*
X01266981Y00929224D01*
X01266688Y00928834D01*
X01266346Y00928346D01*
X01265956Y00927760D01*
X01265614Y00927125D01*
X01265272Y00926393D01*
X01265224Y00926295D01*
X01265175Y00926051D01*
X01265028Y00925661D01*
X01264882Y00925172D01*
X01264735Y00924538D01*
X01264638Y00923854D01*
X01264540Y00923073D01*
X01264491Y00922243D01*
Y00922146D01*
Y00921853D01*
X01264540Y00921413D01*
X01264589Y00920876D01*
X01264687Y00920242D01*
X01264833Y00919509D01*
X01265028Y00918777D01*
X01265272Y00918045D01*
X01265321Y00917947D01*
X01265419Y00917703D01*
X01265614Y00917361D01*
X01265858Y00916922D01*
X01266151Y00916385D01*
X01266542Y00915799D01*
X01266981Y00915262D01*
X01267469Y00914676D01*
X01267518Y00914628D01*
X01267713Y00914432D01*
X01268006Y00914188D01*
X01268397Y00913846D01*
X01268836Y00913456D01*
X01269422Y00913114D01*
X01270008Y00912724D01*
X01270691Y00912382D01*
X01270789Y00912333D01*
X01271033Y00912235D01*
X01271375Y00912138D01*
X01271863Y00911991D01*
X01272498Y00911796D01*
X01273132Y00911698D01*
X01273865Y00911601D01*
X01274646Y00911552D01*
X01274939D01*
X01275329Y00911601D01*
X01275769Y00911650D01*
X01276305Y00911698D01*
X01276891Y00911845D01*
X01277477Y00911991D01*
X01278112Y00912187D01*
X01278209Y00912235D01*
X01278405Y00912284D01*
X01278698Y00912431D01*
X01279088Y00912626D01*
X01279576Y00912919D01*
X01280065Y00913212D01*
X01280553Y00913553D01*
X01281041Y00913944D01*
X01281090Y00913993D01*
X01281285Y00914139D01*
X01281529Y00914383D01*
X01281822Y00914725D01*
X01282164Y00915116D01*
X01282505Y00915604D01*
X01282896Y00916092D01*
X01283238Y00916678D01*
X01283287Y00916727D01*
X01283384Y00916971D01*
X01283531Y00917264D01*
X01283775Y00917703D01*
X01283970Y00918191D01*
X01284165Y00918777D01*
X01284409Y00919412D01*
X01284556Y00920095D01*
X01274206D01*
Y00923903D01*
X01289145D01*
Y00923805D01*
X01289194Y00923610D01*
Y00923317D01*
Y00923024D01*
Y00922975D01*
X01289243Y00922780D01*
Y00922487D01*
Y00922194D01*
Y00922097D01*
Y00921853D01*
Y00921511D01*
X01289194Y00921120D01*
Y00921023D01*
X01289145Y00920779D01*
X01289096Y00920486D01*
X01289047Y00920095D01*
Y00920046D01*
Y00919998D01*
X01288998Y00919851D01*
Y00919656D01*
X01288852Y00919119D01*
X01288705Y00918484D01*
X01288510Y00917703D01*
X01288217Y00916824D01*
X01287876Y00915946D01*
X01287436Y00915067D01*
Y00915018D01*
X01287387Y00914969D01*
X01287192Y00914676D01*
X01286948Y00914237D01*
X01286557Y00913700D01*
X01286069Y00913065D01*
X01285532Y00912431D01*
X01284898Y00911747D01*
X01284214Y00911064D01*
X01284117Y00911015D01*
X01283872Y00910771D01*
X01283482Y00910478D01*
X01282945Y00910136D01*
X01282310Y00909697D01*
X01281578Y00909258D01*
X01280748Y00908818D01*
X01279869Y00908428D01*
X01279820D01*
X01279772Y00908379D01*
X01279625Y00908330D01*
X01279430Y00908281D01*
X01278942Y00908135D01*
X01278307Y00907988D01*
X01277526Y00907793D01*
X01276647Y00907646D01*
X01275671Y00907549D01*
X01274646Y00907500D01*
X01274109D01*
X01273865Y00907549D01*
X01273572D01*
X01272791Y00907646D01*
X01271912Y00907793D01*
X01270984Y00907988D01*
X01269959Y00908232D01*
X01268934Y00908623D01*
X01268885D01*
X01268836Y00908672D01*
X01268690Y00908769D01*
X01268494Y00908818D01*
X01267958Y00909111D01*
X01267323Y00909453D01*
X01266590Y00909892D01*
X01265809Y00910478D01*
X01265028Y00911064D01*
X01264247Y00911796D01*
X01264150Y00911894D01*
X01263905Y00912138D01*
X01263564Y00912577D01*
X01263124Y00913114D01*
X01262636Y00913798D01*
X01262099Y00914628D01*
X01261611Y00915506D01*
X01261123Y00916483D01*
Y00916532D01*
X01261074Y00916629D01*
X01261025Y00916776D01*
X01260928Y00916971D01*
X01260879Y00917215D01*
X01260781Y00917508D01*
X01260586Y00918191D01*
X01260342Y00919070D01*
X01260195Y00920046D01*
X01260049Y00921120D01*
X01260000Y00922243D01*
Y00922292D01*
Y00922390D01*
Y00922536D01*
Y00922780D01*
X01260049Y00923024D01*
Y00923366D01*
X01260146Y00924098D01*
X01260293Y00925026D01*
X01260488Y00925954D01*
X01260732Y00926979D01*
X01261123Y00928004D01*
Y00928053D01*
X01261172Y00928102D01*
X01261269Y00928248D01*
X01261318Y00928443D01*
X01261611Y00928980D01*
X01261953Y00929615D01*
X01262392Y00930347D01*
X01262929Y00931128D01*
X01263564Y00931909D01*
X01264247Y00932691D01*
X01264345Y00932788D01*
X01264589Y00933032D01*
X01265028Y00933374D01*
X01265565Y00933862D01*
X01266249Y00934350D01*
X01267079Y00934887D01*
X01267958Y00935376D01*
X01268934Y00935864D01*
X01268983D01*
X01269080Y00935912D01*
X01269227Y00935961D01*
X01269422Y00936059D01*
X01269666Y00936157D01*
X01269959Y00936254D01*
X01270642Y00936450D01*
X01271521Y00936645D01*
X01272498Y00936840D01*
X01273523Y00936986D01*
X01274646Y00937035D01*
X01275036D01*
X01275476Y00936986D01*
D02*
G37*
G36*
X01266786Y01292539D02*
X01263272D01*
X01262569Y01294413D01*
X01251755D01*
X01251014Y01292539D01*
X01247500D01*
X01257143Y01316158D01*
X01266786Y01292539D01*
D02*
G37*
G36*
X01340014Y00928736D02*
X01337427Y00924587D01*
X01329469Y00911601D01*
X01340014D01*
Y00907451D01*
X01322097D01*
X01324636Y00911552D01*
X01332594Y00924587D01*
X01322097D01*
Y00928785D01*
X01340014D01*
Y00928736D01*
D02*
G37*
G36*
X01371746Y00911698D02*
X01383756D01*
Y00907451D01*
X01367450D01*
Y00937035D01*
X01371746D01*
Y00911698D01*
D02*
G37*
G36*
X01669417Y01180997D02*
X01669417D01*
X01669417Y01180997D01*
Y01180997D01*
D02*
G37*
G36*
X01584750Y01180997D02*
X01584750Y01130325D01*
Y01180973D01*
X01669417D01*
Y01180997D01*
X01670459Y01180997D01*
X01670579Y01180973D01*
X01671668D01*
Y01180757D01*
X01672504Y01180590D01*
X01674430Y01179793D01*
X01676163Y01178634D01*
X01677637Y01177160D01*
X01678795Y01175427D01*
X01679593Y01173501D01*
X01680000Y01171456D01*
X01680000Y01170414D01*
X01680000Y01054586D01*
X01680000Y01054586D01*
X01680000Y01053544D01*
X01679593Y01051499D01*
X01678795Y01049573D01*
X01677637Y01047840D01*
X01676163Y01046366D01*
X01674430Y01045207D01*
X01672504Y01044410D01*
X01670459Y01044003D01*
X01584750D01*
X01584750Y01044003D01*
X01583708Y01044003D01*
X01581663Y01044410D01*
X01579737Y01045207D01*
X01578004Y01046366D01*
X01576529Y01047840D01*
X01575371Y01049573D01*
X01574573Y01051499D01*
X01574167Y01053544D01*
X01574167Y01054586D01*
X01574167Y01170414D01*
D01*
Y01170414D01*
Y01170414D01*
X01574167Y01171456D01*
X01574573Y01173501D01*
X01575371Y01175427D01*
X01576529Y01177160D01*
X01578004Y01178634D01*
X01579737Y01179793D01*
X01581663Y01180590D01*
X01583708Y01180997D01*
X01584750Y01180997D01*
D02*
G37*
G36*
X01401135Y00928687D02*
X01401721Y00928639D01*
X01402356Y00928541D01*
X01403039Y00928346D01*
X01403771Y00928150D01*
X01404504Y00927857D01*
X01404601Y00927809D01*
X01404845Y00927711D01*
X01405187Y00927516D01*
X01405675Y00927272D01*
X01406212Y00926930D01*
X01406749Y00926539D01*
X01407335Y00926100D01*
X01407921Y00925563D01*
X01407970Y00925514D01*
X01408165Y00925319D01*
X01408409Y00924977D01*
X01408751Y00924587D01*
X01409141Y00924098D01*
X01409532Y00923513D01*
X01409874Y00922878D01*
X01410215Y00922146D01*
X01410264Y00922048D01*
X01410362Y00921804D01*
X01410508Y00921413D01*
X01410655Y00920876D01*
X01410801Y00920242D01*
X01410948Y00919558D01*
X01411045Y00918777D01*
X01411094Y00917947D01*
Y00907549D01*
X01406945D01*
Y00909453D01*
X01406896Y00909404D01*
X01406700Y00909306D01*
X01406408Y00909111D01*
X01406017Y00908867D01*
X01405578Y00908623D01*
X01405041Y00908330D01*
X01404504Y00908086D01*
X01403869Y00907842D01*
X01403820D01*
X01403576Y00907744D01*
X01403283Y00907646D01*
X01402844Y00907549D01*
X01402307Y00907451D01*
X01401721Y00907354D01*
X01401037Y00907305D01*
X01400354Y00907256D01*
X01399964D01*
X01399573Y00907305D01*
X01399036Y00907354D01*
X01398401Y00907451D01*
X01397669Y00907598D01*
X01396937Y00907793D01*
X01396204Y00908086D01*
X01396107Y00908135D01*
X01395863Y00908232D01*
X01395521Y00908428D01*
X01395033Y00908672D01*
X01394496Y00909013D01*
X01393959Y00909404D01*
X01393373Y00909843D01*
X01392787Y00910380D01*
X01392738Y00910429D01*
X01392543Y00910624D01*
X01392299Y00910966D01*
X01391957Y00911357D01*
X01391567Y00911845D01*
X01391225Y00912431D01*
X01390834Y00913114D01*
X01390493Y00913798D01*
X01390444Y00913895D01*
X01390346Y00914139D01*
X01390249Y00914530D01*
X01390102Y00915067D01*
X01389907Y00915653D01*
X01389809Y00916385D01*
X01389711Y00917117D01*
X01389663Y00917947D01*
Y00917996D01*
Y00918045D01*
Y00918338D01*
X01389711Y00918728D01*
X01389760Y00919314D01*
X01389858Y00919949D01*
X01390004Y00920632D01*
X01390200Y00921365D01*
X01390493Y00922097D01*
X01390542Y00922194D01*
X01390639Y00922439D01*
X01390834Y00922829D01*
X01391078Y00923269D01*
X01391420Y00923805D01*
X01391811Y00924391D01*
X01392250Y00924977D01*
X01392738Y00925563D01*
X01392787Y00925612D01*
X01392982Y00925807D01*
X01393324Y00926051D01*
X01393715Y00926393D01*
X01394203Y00926783D01*
X01394789Y00927174D01*
X01395472Y00927516D01*
X01396156Y00927857D01*
X01396253Y00927906D01*
X01396497Y00928004D01*
X01396888Y00928150D01*
X01397425Y00928297D01*
X01398060Y00928443D01*
X01398743Y00928590D01*
X01399524Y00928687D01*
X01400354Y00928736D01*
X01400745D01*
X01401135Y00928687D01*
D02*
G37*
G36*
X01421590Y00926490D02*
X01421639Y00926539D01*
X01421834Y00926686D01*
X01422127Y00926881D01*
X01422469Y00927125D01*
X01422908Y00927369D01*
X01423445Y00927662D01*
X01424031Y00927906D01*
X01424617Y00928150D01*
X01424715Y00928199D01*
X01424910Y00928248D01*
X01425252Y00928346D01*
X01425691Y00928443D01*
X01426228Y00928541D01*
X01426814Y00928639D01*
X01427448Y00928736D01*
X01428522D01*
X01428913Y00928687D01*
X01429450Y00928639D01*
X01430085Y00928541D01*
X01430768Y00928394D01*
X01431500Y00928199D01*
X01432233Y00927906D01*
X01432330Y00927857D01*
X01432574Y00927760D01*
X01432916Y00927564D01*
X01433404Y00927320D01*
X01433941Y00926979D01*
X01434478Y00926588D01*
X01435064Y00926149D01*
X01435650Y00925612D01*
X01435699Y00925563D01*
X01435894Y00925368D01*
X01436138Y00925026D01*
X01436480Y00924635D01*
X01436871Y00924147D01*
X01437261Y00923561D01*
X01437603Y00922927D01*
X01437944Y00922194D01*
X01437993Y00922097D01*
X01438091Y00921853D01*
X01438189Y00921462D01*
X01438384Y00920974D01*
X01438530Y00920339D01*
X01438628Y00919656D01*
X01438726Y00918924D01*
X01438774Y00918094D01*
Y00917996D01*
Y00917703D01*
X01438726Y00917264D01*
X01438677Y00916727D01*
X01438579Y00916092D01*
X01438433Y00915360D01*
X01438237Y00914628D01*
X01437944Y00913895D01*
X01437896Y00913798D01*
X01437798Y00913553D01*
X01437603Y00913212D01*
X01437359Y00912772D01*
X01437017Y00912235D01*
X01436626Y00911650D01*
X01436187Y00911113D01*
X01435650Y00910527D01*
X01435601Y00910478D01*
X01435406Y00910283D01*
X01435064Y00910039D01*
X01434674Y00909697D01*
X01434185Y00909306D01*
X01433600Y00908965D01*
X01432965Y00908574D01*
X01432233Y00908232D01*
X01432135Y00908184D01*
X01431891Y00908135D01*
X01431500Y00907988D01*
X01431012Y00907842D01*
X01430378Y00907695D01*
X01429694Y00907598D01*
X01428962Y00907500D01*
X01428132Y00907451D01*
X01427741D01*
X01427302Y00907500D01*
X01426765Y00907549D01*
X01426130Y00907646D01*
X01425398Y00907793D01*
X01424666Y00907988D01*
X01423934Y00908232D01*
X01423836Y00908281D01*
X01423592Y00908379D01*
X01423250Y00908574D01*
X01422811Y00908818D01*
X01422274Y00909160D01*
X01421688Y00909550D01*
X01421151Y00909990D01*
X01420565Y00910527D01*
X01420516Y00910576D01*
X01420321Y00910771D01*
X01420077Y00911113D01*
X01419735Y00911503D01*
X01419345Y00911991D01*
X01419003Y00912577D01*
X01418612Y00913212D01*
X01418271Y00913895D01*
X01418222Y00913993D01*
X01418173Y00914237D01*
X01418026Y00914628D01*
X01417880Y00915164D01*
X01417733Y00915799D01*
X01417636Y00916483D01*
X01417538Y00917264D01*
X01417489Y00918094D01*
Y00942991D01*
X01421639D01*
X01421590Y00926490D01*
D02*
G37*
%LPC*%
G36*
X01256089Y01155814D02*
X01250936D01*
Y01148045D01*
X01256362D01*
X01256557Y01148084D01*
X01257065Y01148162D01*
X01257572Y01148357D01*
X01257611D01*
X01257689Y01148397D01*
X01257846Y01148475D01*
X01258002Y01148592D01*
X01258431Y01148826D01*
X01258821Y01149177D01*
X01258861Y01149216D01*
X01258900Y01149294D01*
X01259017Y01149372D01*
X01259134Y01149529D01*
X01259407Y01149919D01*
X01259680Y01150426D01*
Y01150466D01*
X01259719Y01150544D01*
X01259798Y01150700D01*
X01259837Y01150895D01*
X01259954Y01151364D01*
X01259993Y01151910D01*
Y01151949D01*
Y01152066D01*
Y01152222D01*
X01259954Y01152418D01*
X01259876Y01152886D01*
X01259680Y01153433D01*
Y01153472D01*
X01259641Y01153550D01*
X01259563Y01153667D01*
X01259446Y01153862D01*
X01259173Y01154252D01*
X01258821Y01154643D01*
X01258783Y01154682D01*
X01258744Y01154721D01*
X01258626Y01154838D01*
X01258470Y01154955D01*
X01258080Y01155228D01*
X01257572Y01155502D01*
X01257533D01*
X01257455Y01155541D01*
X01257299Y01155619D01*
X01257143Y01155658D01*
X01256635Y01155775D01*
X01256089Y01155814D01*
D02*
G37*
G36*
X01255933Y01165574D02*
X01250936D01*
Y01158859D01*
X01256206D01*
X01256362Y01158898D01*
X01256792Y01158976D01*
X01257221Y01159093D01*
X01257260D01*
X01257338Y01159132D01*
X01257455Y01159211D01*
X01257572Y01159289D01*
X01257924Y01159523D01*
X01258275Y01159835D01*
X01258314Y01159874D01*
X01258353Y01159913D01*
X01258548Y01160147D01*
X01258783Y01160460D01*
X01259017Y01160889D01*
Y01160928D01*
X01259056Y01161006D01*
X01259095Y01161123D01*
X01259173Y01161280D01*
X01259251Y01161709D01*
X01259290Y01162178D01*
Y01162256D01*
Y01162412D01*
X01259251Y01162685D01*
X01259173Y01163036D01*
X01259056Y01163388D01*
X01258861Y01163817D01*
X01258626Y01164208D01*
X01258314Y01164598D01*
X01258275Y01164637D01*
X01258158Y01164754D01*
X01257924Y01164910D01*
X01257650Y01165106D01*
X01257299Y01165262D01*
X01256909Y01165418D01*
X01256440Y01165535D01*
X01255933Y01165574D01*
D02*
G37*
G36*
X01257143Y01308233D02*
X01252926Y01297419D01*
X01261359D01*
X01257143Y01308233D01*
D02*
G37*
G36*
X01611403Y01165390D02*
X01610973D01*
X01610075Y01165351D01*
X01609216Y01165234D01*
X01608436Y01165077D01*
X01607733Y01164921D01*
X01607186Y01164765D01*
X01606952Y01164687D01*
X01606757Y01164609D01*
X01606601Y01164531D01*
X01606484Y01164492D01*
X01606405Y01164453D01*
X01606366D01*
X01605586Y01164062D01*
X01604883Y01163672D01*
X01604219Y01163243D01*
X01603673Y01162813D01*
X01603243Y01162462D01*
X01602892Y01162149D01*
X01602697Y01161954D01*
X01602619Y01161876D01*
X01602033Y01161252D01*
X01601564Y01160627D01*
X01601096Y01159963D01*
X01600745Y01159378D01*
X01600471Y01158870D01*
X01600237Y01158441D01*
X01600198Y01158285D01*
X01600120Y01158206D01*
X01600081Y01158128D01*
Y01158089D01*
X01599769Y01157270D01*
X01599574Y01156450D01*
X01599417Y01155669D01*
X01599300Y01154966D01*
X01599222Y01154342D01*
Y01154068D01*
X01599183Y01153873D01*
Y01153678D01*
Y01153561D01*
Y01153483D01*
Y01153444D01*
X01599222Y01152546D01*
X01599339Y01151687D01*
X01599456Y01150906D01*
X01599652Y01150203D01*
X01599808Y01149618D01*
X01599886Y01149383D01*
X01599925Y01149188D01*
X01600003Y01149032D01*
X01600042Y01148915D01*
X01600081Y01148837D01*
Y01148798D01*
X01600471Y01148017D01*
X01600862Y01147314D01*
X01601291Y01146651D01*
X01601721Y01146104D01*
X01602072Y01145636D01*
X01602345Y01145284D01*
X01602540Y01145089D01*
X01602619Y01145011D01*
X01603243Y01144425D01*
X01603868Y01143957D01*
X01604492Y01143488D01*
X01605078Y01143137D01*
X01605586Y01142864D01*
X01606015Y01142629D01*
X01606171Y01142590D01*
X01606288Y01142512D01*
X01606327Y01142473D01*
X01606366D01*
X01607186Y01142161D01*
X01608006Y01141966D01*
X01608787Y01141810D01*
X01609490Y01141693D01*
X01610075Y01141615D01*
X01610349D01*
X01610544Y01141575D01*
X01610973D01*
X01611871Y01141615D01*
X01612691Y01141732D01*
X01613472Y01141849D01*
X01614174Y01142044D01*
X01614721Y01142200D01*
X01614955Y01142278D01*
X01615150Y01142317D01*
X01615346Y01142395D01*
X01615463Y01142434D01*
X01615502Y01142473D01*
X01615541D01*
X01616322Y01142864D01*
X01617063Y01143254D01*
X01617688Y01143684D01*
X01618274Y01144113D01*
X01618703Y01144464D01*
X01619054Y01144738D01*
X01619250Y01144933D01*
X01619328Y01145011D01*
X01619913Y01145636D01*
X01620382Y01146299D01*
X01620850Y01146924D01*
X01621202Y01147510D01*
X01621475Y01148017D01*
X01621709Y01148447D01*
X01621787Y01148603D01*
X01621826Y01148720D01*
X01621865Y01148759D01*
Y01148798D01*
X01622178Y01149618D01*
X01622412Y01150437D01*
X01622568Y01151218D01*
X01622685Y01151960D01*
X01622763Y01152546D01*
Y01152819D01*
X01622802Y01153014D01*
Y01153209D01*
Y01153326D01*
Y01153404D01*
Y01153444D01*
X01622763Y01154342D01*
X01622646Y01155200D01*
X01622490Y01155981D01*
X01622334Y01156684D01*
X01622178Y01157270D01*
X01622099Y01157504D01*
X01622021Y01157699D01*
X01621943Y01157855D01*
X01621904Y01158011D01*
X01621865Y01158050D01*
Y01158089D01*
X01621475Y01158870D01*
X01621084Y01159612D01*
X01620655Y01160237D01*
X01620265Y01160822D01*
X01619874Y01161252D01*
X01619601Y01161603D01*
X01619406Y01161798D01*
X01619328Y01161876D01*
X01618703Y01162462D01*
X01618078Y01162969D01*
X01617415Y01163399D01*
X01616829Y01163789D01*
X01616322Y01164062D01*
X01615892Y01164297D01*
X01615736Y01164375D01*
X01615658Y01164414D01*
X01615580Y01164453D01*
X01615541D01*
X01614721Y01164765D01*
X01613940Y01164999D01*
X01613159Y01165155D01*
X01612457Y01165273D01*
X01611871Y01165351D01*
X01611598D01*
X01611403Y01165390D01*
D02*
G37*
G36*
X01654151Y01169723D02*
X01650833D01*
Y01163360D01*
X01647670D01*
Y01160041D01*
X01650833D01*
Y01141615D01*
X01654151D01*
Y01160041D01*
X01657235D01*
Y01163360D01*
X01654151D01*
Y01169723D01*
D02*
G37*
G36*
X01642634Y01158597D02*
X01639316D01*
Y01155083D01*
Y01148954D01*
X01639277Y01148329D01*
X01639199Y01148056D01*
X01639160Y01147822D01*
X01639082Y01147627D01*
X01639004Y01147470D01*
X01638965Y01147392D01*
Y01147353D01*
X01638691Y01146846D01*
X01638418Y01146416D01*
X01638262Y01146260D01*
X01638184Y01146182D01*
X01638106Y01146104D01*
X01638067Y01146065D01*
X01637637Y01145714D01*
X01637208Y01145440D01*
X01637052Y01145323D01*
X01636896Y01145284D01*
X01636817Y01145206D01*
X01636778D01*
X01636232Y01145011D01*
X01635724Y01144933D01*
X01635529Y01144894D01*
X01635217D01*
X01634631Y01144933D01*
X01634124Y01145050D01*
X01633889Y01145128D01*
X01633733Y01145167D01*
X01633655Y01145206D01*
X01633616D01*
X01633109Y01145479D01*
X01632679Y01145753D01*
X01632523Y01145870D01*
X01632445Y01145987D01*
X01632367Y01146026D01*
X01632328Y01146065D01*
X01631976Y01146495D01*
X01631703Y01146924D01*
X01631586Y01147080D01*
X01631547Y01147236D01*
X01631469Y01147314D01*
Y01147353D01*
X01631274Y01147900D01*
X01631196Y01148447D01*
X01631157Y01148642D01*
Y01148798D01*
Y01148915D01*
Y01148954D01*
Y01155083D01*
Y01158597D01*
X01627838D01*
Y01148954D01*
X01627877Y01148251D01*
X01627995Y01147588D01*
X01628112Y01146963D01*
X01628307Y01146416D01*
X01628463Y01145987D01*
X01628580Y01145636D01*
X01628697Y01145440D01*
X01628736Y01145362D01*
X01629088Y01144777D01*
X01629478Y01144269D01*
X01629907Y01143840D01*
X01630298Y01143488D01*
X01630610Y01143176D01*
X01630923Y01142981D01*
X01631079Y01142825D01*
X01631157Y01142786D01*
X01631820Y01142395D01*
X01632172Y01142239D01*
X01632445Y01142122D01*
X01632718Y01142005D01*
X01632914Y01141966D01*
X01633031Y01141888D01*
X01633070D01*
X01633851Y01141693D01*
X01634202Y01141654D01*
X01634514Y01141615D01*
X01634787Y01141575D01*
X01635217D01*
X01636037Y01141615D01*
X01636388Y01141693D01*
X01636700Y01141732D01*
X01636974Y01141810D01*
X01637208Y01141849D01*
X01637325Y01141888D01*
X01637364D01*
X01638106Y01142161D01*
X01638418Y01142317D01*
X01638730Y01142473D01*
X01638965Y01142590D01*
X01639160Y01142708D01*
X01639277Y01142747D01*
X01639316Y01142786D01*
X01639863Y01143176D01*
X01640331Y01143605D01*
X01640760Y01144035D01*
X01641112Y01144425D01*
X01641385Y01144816D01*
X01641580Y01145089D01*
X01641698Y01145284D01*
X01641736Y01145362D01*
X01642049Y01145987D01*
X01642244Y01146612D01*
X01642400Y01147236D01*
X01642517Y01147783D01*
X01642595Y01148251D01*
X01642634Y01148642D01*
Y01148759D01*
Y01148876D01*
Y01148915D01*
Y01148954D01*
Y01158597D01*
D02*
G37*
%LPD*%
G36*
X01611598Y01162032D02*
X01612183Y01161954D01*
X01612730Y01161837D01*
X01613198Y01161720D01*
X01613589Y01161603D01*
X01613862Y01161486D01*
X01614057Y01161408D01*
X01614135Y01161369D01*
X01614682Y01161095D01*
X01615150Y01160822D01*
X01615619Y01160510D01*
X01615970Y01160198D01*
X01616283Y01159924D01*
X01616517Y01159729D01*
X01616673Y01159573D01*
X01616712Y01159534D01*
X01617102Y01159065D01*
X01617454Y01158597D01*
X01617766Y01158128D01*
X01618039Y01157699D01*
X01618235Y01157347D01*
X01618391Y01157035D01*
X01618469Y01156840D01*
X01618508Y01156762D01*
X01618742Y01156176D01*
X01618898Y01155591D01*
X01619015Y01155044D01*
X01619093Y01154537D01*
X01619132Y01154068D01*
X01619171Y01153756D01*
Y01153522D01*
Y01153483D01*
Y01153444D01*
X01619132Y01152780D01*
X01619054Y01152155D01*
X01618976Y01151609D01*
X01618859Y01151101D01*
X01618703Y01150672D01*
X01618625Y01150359D01*
X01618547Y01150164D01*
X01618508Y01150086D01*
X01618235Y01149540D01*
X01617961Y01148993D01*
X01617649Y01148525D01*
X01617376Y01148134D01*
X01617102Y01147822D01*
X01616907Y01147549D01*
X01616751Y01147392D01*
X01616712Y01147353D01*
X01616283Y01146963D01*
X01615853Y01146612D01*
X01615424Y01146299D01*
X01615033Y01146026D01*
X01614682Y01145831D01*
X01614370Y01145675D01*
X01614213Y01145597D01*
X01614135Y01145557D01*
X01613589Y01145323D01*
X01613003Y01145167D01*
X01612496Y01145050D01*
X01611988Y01144972D01*
X01611598Y01144933D01*
X01611246Y01144894D01*
X01610973D01*
X01610349Y01144933D01*
X01609763Y01145011D01*
X01609255Y01145089D01*
X01608748Y01145245D01*
X01608358Y01145362D01*
X01608084Y01145440D01*
X01607889Y01145518D01*
X01607811Y01145557D01*
X01607264Y01145831D01*
X01606796Y01146104D01*
X01606327Y01146416D01*
X01605937Y01146690D01*
X01605625Y01146963D01*
X01605390Y01147158D01*
X01605234Y01147314D01*
X01605195Y01147353D01*
X01604805Y01147822D01*
X01604453Y01148290D01*
X01604141Y01148720D01*
X01603907Y01149149D01*
X01603712Y01149540D01*
X01603556Y01149813D01*
X01603477Y01150008D01*
X01603438Y01150086D01*
X01603243Y01150672D01*
X01603087Y01151257D01*
X01602970Y01151843D01*
X01602892Y01152350D01*
X01602853Y01152780D01*
X01602814Y01153131D01*
Y01153365D01*
Y01153444D01*
X01602853Y01154107D01*
X01602931Y01154693D01*
X01603009Y01155278D01*
X01603126Y01155747D01*
X01603243Y01156176D01*
X01603360Y01156489D01*
X01603399Y01156684D01*
X01603438Y01156762D01*
X01603712Y01157347D01*
X01603985Y01157855D01*
X01604297Y01158363D01*
X01604571Y01158753D01*
X01604805Y01159065D01*
X01605000Y01159339D01*
X01605156Y01159495D01*
X01605195Y01159534D01*
X01605625Y01159963D01*
X01606093Y01160315D01*
X01606523Y01160627D01*
X01606913Y01160900D01*
X01607264Y01161095D01*
X01607577Y01161252D01*
X01607733Y01161330D01*
X01607811Y01161369D01*
X01608358Y01161603D01*
X01608943Y01161759D01*
X01609451Y01161915D01*
X01609958Y01161993D01*
X01610349Y01162032D01*
X01610700Y01162071D01*
X01610973D01*
X01611598Y01162032D01*
D02*
G37*
%LPC*%
G36*
X01400842Y00924587D02*
X01400110D01*
X01399866Y00924538D01*
X01399524D01*
X01399134Y00924440D01*
X01398694Y00924342D01*
X01398206Y00924245D01*
X01397767Y00924050D01*
X01397718D01*
X01397571Y00923952D01*
X01397327Y00923854D01*
X01397083Y00923659D01*
X01396400Y00923220D01*
X01395716Y00922585D01*
X01395667Y00922536D01*
X01395570Y00922439D01*
X01395423Y00922243D01*
X01395228Y00921999D01*
X01394984Y00921706D01*
X01394740Y00921316D01*
X01394301Y00920486D01*
Y00920437D01*
X01394203Y00920291D01*
X01394154Y00920046D01*
X01394056Y00919753D01*
X01393959Y00919363D01*
X01393910Y00918924D01*
X01393812Y00917947D01*
Y00917898D01*
Y00917703D01*
X01393861Y00917459D01*
Y00917117D01*
X01393910Y00916727D01*
X01394008Y00916336D01*
X01394301Y00915409D01*
X01394349Y00915360D01*
X01394398Y00915213D01*
X01394496Y00914969D01*
X01394691Y00914725D01*
X01395130Y00914042D01*
X01395716Y00913309D01*
X01395765Y00913261D01*
X01395863Y00913163D01*
X01396058Y00913017D01*
X01396302Y00912821D01*
X01396595Y00912577D01*
X01396937Y00912333D01*
X01397767Y00911894D01*
X01397816D01*
X01397962Y00911796D01*
X01398206Y00911747D01*
X01398548Y00911650D01*
X01398938Y00911552D01*
X01399378Y00911503D01*
X01400354Y00911405D01*
X01400598D01*
X01400842Y00911454D01*
X01401184D01*
X01401575Y00911503D01*
X01402014Y00911601D01*
X01402893Y00911894D01*
X01402941Y00911943D01*
X01403088Y00911991D01*
X01403332Y00912089D01*
X01403625Y00912284D01*
X01404308Y00912724D01*
X01404992Y00913309D01*
X01405041Y00913358D01*
X01405138Y00913456D01*
X01405285Y00913651D01*
X01405480Y00913944D01*
X01405724Y00914237D01*
X01405968Y00914579D01*
X01406408Y00915409D01*
X01406456Y00915458D01*
X01406505Y00915604D01*
X01406603Y00915848D01*
X01406700Y00916190D01*
X01406798Y00916580D01*
X01406847Y00917020D01*
X01406945Y00917459D01*
Y00917947D01*
Y00917996D01*
Y00918191D01*
X01406896Y00918435D01*
Y00918777D01*
X01406798Y00919168D01*
X01406700Y00919607D01*
X01406603Y00920046D01*
X01406408Y00920486D01*
Y00920535D01*
X01406310Y00920681D01*
X01406212Y00920925D01*
X01406017Y00921218D01*
X01405578Y00921901D01*
X01404992Y00922585D01*
X01404943Y00922634D01*
X01404845Y00922731D01*
X01404650Y00922927D01*
X01404406Y00923122D01*
X01404113Y00923366D01*
X01403723Y00923610D01*
X01402893Y00924050D01*
X01402844Y00924098D01*
X01402697Y00924147D01*
X01402453Y00924245D01*
X01402160Y00924342D01*
X01401770Y00924440D01*
X01401330Y00924489D01*
X01400842Y00924587D01*
D02*
G37*
G36*
X01428620D02*
X01427888D01*
X01427644Y00924538D01*
X01427302D01*
X01426911Y00924440D01*
X01426521Y00924342D01*
X01426033Y00924245D01*
X01425593Y00924050D01*
X01425544D01*
X01425398Y00923952D01*
X01425154Y00923854D01*
X01424910Y00923708D01*
X01424226Y00923269D01*
X01423543Y00922683D01*
X01423494Y00922634D01*
X01423396Y00922536D01*
X01423250Y00922341D01*
X01423055Y00922097D01*
X01422811Y00921804D01*
X01422567Y00921462D01*
X01422127Y00920632D01*
Y00920583D01*
X01422030Y00920437D01*
X01421981Y00920193D01*
X01421883Y00919900D01*
X01421785Y00919509D01*
X01421737Y00919070D01*
X01421639Y00918094D01*
Y00918045D01*
Y00917850D01*
X01421688Y00917606D01*
Y00917264D01*
X01421737Y00916873D01*
X01421834Y00916434D01*
X01422127Y00915555D01*
X01422176Y00915506D01*
X01422225Y00915360D01*
X01422323Y00915116D01*
X01422518Y00914872D01*
X01422957Y00914188D01*
X01423543Y00913456D01*
X01423592Y00913407D01*
X01423689Y00913309D01*
X01423885Y00913163D01*
X01424129Y00912968D01*
X01424422Y00912724D01*
X01424763Y00912528D01*
X01425593Y00912089D01*
X01425642D01*
X01425789Y00911991D01*
X01426033Y00911943D01*
X01426375Y00911845D01*
X01426765Y00911747D01*
X01427204Y00911698D01*
X01428132Y00911601D01*
X01428376D01*
X01428620Y00911650D01*
X01428962D01*
X01429304Y00911698D01*
X01429743Y00911796D01*
X01430622Y00912089D01*
X01430670D01*
X01430817Y00912187D01*
X01431061Y00912284D01*
X01431354Y00912431D01*
X01432037Y00912870D01*
X01432721Y00913456D01*
X01432770Y00913505D01*
X01432867Y00913602D01*
X01433014Y00913798D01*
X01433209Y00914090D01*
X01433453Y00914383D01*
X01433649Y00914725D01*
X01434088Y00915555D01*
X01434137Y00915604D01*
X01434185Y00915750D01*
X01434283Y00915994D01*
X01434381Y00916336D01*
X01434478Y00916678D01*
X01434527Y00917117D01*
X01434625Y00917606D01*
Y00918094D01*
Y00918142D01*
Y00918338D01*
X01434576Y00918582D01*
Y00918924D01*
X01434478Y00919265D01*
X01434381Y00919705D01*
X01434283Y00920144D01*
X01434088Y00920583D01*
Y00920632D01*
X01433990Y00920779D01*
X01433893Y00921023D01*
X01433746Y00921316D01*
X01433307Y00921999D01*
X01432721Y00922683D01*
X01432672Y00922731D01*
X01432574Y00922829D01*
X01432379Y00922975D01*
X01432135Y00923171D01*
X01431842Y00923415D01*
X01431452Y00923610D01*
X01430622Y00924050D01*
X01430573Y00924098D01*
X01430426Y00924147D01*
X01430182Y00924245D01*
X01429889Y00924342D01*
X01429499Y00924440D01*
X01429059Y00924489D01*
X01428620Y00924587D01*
D02*
G37*
%LPD*%
D10*
X01098669Y01152500D02*
X01052500D01*
X01072499Y01162501D01*
X01052500D02*
Y01142502D01*
Y01152500D02*
X01072499Y01142502D01*
X01089083Y01295172D02*
Y01315174D01*
X01074083D01*
Y01295172D01*
X01056584D01*
Y01315174D01*
X01041584D01*
Y01295172D01*
X01089083D02*
X01099084D01*
X01501584Y01294173D02*
X01505583Y01311670D01*
X01505997Y01312650D02*
G03*
X01505583Y01311670I00007840J-00003890D01*
G01*
X01506573Y01313722D02*
G03*
X01505997Y01312650I00012536J-00007416D01*
G01*
X01508654Y01316527D02*
G03*
X01506573Y01313722I00012495J-00011446D01*
G01*
X01514683Y01320868D02*
G03*
X01508654Y01316527I00007512J-00016792D01*
G01*
X01517623Y01321946D02*
G03*
X01514683Y01320868I00005857J-00020525D01*
G01*
X01521093Y01322670D02*
G03*
X01517623Y01321946I00003318J-00024550D01*
G01*
X01527865Y01323329D02*
G03*
X01521093Y01322670I00004645J-00082872D01*
G01*
X01544524Y01304013D02*
G03*
X01547864Y01300562I00013416J00009640D01*
G01*
D02*
G03*
X01552512Y01298087I00009916J00013019D01*
G01*
Y01298087D02*
G03*
X01558682Y01296990I00006792J00020295D01*
G01*
Y01296990D02*
G03*
X01566586Y01297673I00000989J00034624D01*
G01*
X01542282Y01308038D02*
G03*
X01544524Y01304013I00018782J00007830D01*
G01*
X01540924Y01312232D02*
G03*
X01542282Y01308038I00025941J00006083D01*
G01*
X01540009Y01319524D02*
G03*
X01540923Y01312232I00035609J00000760D01*
G01*
X01540083Y01322670D02*
G03*
X01540009Y01319524I00028880J-00002245D01*
G01*
X01540083Y01322670D02*
G03*
X01539888Y01322717I-00001521J-00005953D01*
G01*
X01539888D02*
G03*
X01539307Y01322835I-00003481J-00015604D01*
G01*
Y01322835D02*
G03*
X01538342Y01322995I-00004664J-00025209D01*
G01*
Y01322995D02*
G03*
X01536996Y01323165I-00005032J-00034457D01*
G01*
Y01323165D02*
G03*
X01535272Y01323314I-00004628J-00043419D01*
G01*
Y01323314D02*
G03*
X01533174Y01323412I-00003484J-00052187D01*
G01*
D02*
G03*
X01530704Y01323427I-00001616J-00060853D01*
G01*
Y01323427D02*
G03*
X01527865Y01323329I00000973J-00069510D01*
G01*
M02*
