M48
;Layer_Color=9474304
;FILE_FORMAT=4:4
METRIC
;TYPE=NON_PLATED
T1F00S00C3.1000
T3F00S00C6.8000
T4F00S00C7.0000
T5F00S00C8.0000
%
T01
X01610000Y01340000
X01510000Y01540000
X01345000Y01270000
X01085000Y01340000
X01185000Y01540000
X01085000Y01740000
X01347500Y01860000
X01610000Y01740000
T03
X01070000Y01090000
X01256000
X01442000
X01628000
X01256000Y01240000
X01070000
T04
X01535000Y01250000
T05
X01610000Y01457500
X01345000Y01390000
X01085000Y01457500
X01185000Y01657500
X01085000Y01857500
X01347500Y01975000
X01510000Y01657500
X01610000Y01857500
M30
